<svg width="80" height="63" viewBox="0 0 80 63" fill="none" xmlns="http://www.w3.org/2000/svg">
<g clip-path="url(#clip0_252_313)">
<path d="M0 29.155L0.14375 28.9083C0.175 26.6276 0.910417 24.347 2.00208 22.3649C2.48542 21.4879 3.46458 20.4989 3.81458 19.8147C4.11042 19.2362 4.27917 18.0378 4.56875 17.2997C6.02083 13.5802 8.02917 10.3893 11.0875 7.77282C11.7958 7.16741 12.9688 6.05196 13.8958 6.84811C15.1958 7.96149 13.1229 9.04998 12.4938 9.63881C9.15417 12.7654 6.92292 16.3502 5.98542 20.8866C5.64167 22.5432 4.95625 24.2246 6.99583 24.7596C17.3333 27.4735 28.3 25.1721 33.4583 15.1124C34.6938 12.7053 36.1958 7.82672 33.0667 6.26966C29.9333 4.71052 24.6083 4.57575 21.2396 5.28068C20.45 5.44655 18.2313 6.32564 17.7396 6.29246C16.5375 6.21368 16.2417 4.60478 17.5667 3.95583C21.6438 1.95507 31.8729 1.93848 35.3854 5.04847C36.1875 5.75962 36.8604 6.958 37.1083 7.99881C37.2542 8.61666 37.2167 9.88968 37.4146 10.3375C37.5271 10.5905 38.9917 11.9982 39.3396 12.4647C44.5 19.4021 43.1042 29.3105 36.5563 34.8318C35.8396 35.4351 34.9771 35.8477 34.2521 36.4179C34.1271 36.5153 33.9646 36.4116 34.0542 36.7724C35.4604 37.1891 36.4729 37.5644 37.9979 37.355C38.8729 37.2347 39.8167 36.6667 40.7 36.6148C42.8729 36.4904 44.8521 38.2445 44.8479 40.4277C44.8333 45.4161 35.1437 45.4555 31.8708 44.2384C32.1813 45.669 32.0625 47.3609 32.4083 48.7541C32.7938 50.307 34.4021 50.5102 34.2021 52.3845C34.0979 53.3631 33.1604 53.9851 33.1167 54.1468C32.7938 55.3514 33.2833 58.3619 33.1188 59.8671C32.6667 64.0221 26.6208 63.9702 26.1021 60.0081C26.0188 59.3695 26.2917 56.0045 25.8292 55.8947C25.3021 55.8076 24.8021 56.0502 24.3 56.0626C23.5 56.0833 21.7438 55.7682 21.2 55.932C20.8896 56.0253 19.9625 57.0101 19.5813 57.2734C18.0021 58.3557 11.8396 59.6038 9.91667 59.4815C6.28542 59.2514 5.72292 54.6133 9.11458 53.2304C10.0021 52.8676 12.4521 52.4446 13.0292 52.03C13.0979 51.9802 13.4063 50.8959 13.7083 50.4916C13.9708 50.1412 14.3063 50.22 14.2167 49.8385C11.5771 48.7106 11.4729 45.922 12.6563 43.6164C10.2063 43.7616 7.69167 43.888 5.22917 43.7782C4.27708 43.7346 2.46042 43.6558 1.66042 43.2868C0.608333 42.7995 0.352083 41.9806 0.00416667 40.9709V38.6384C0.233333 37.8464 0.222917 36.9756 0.389583 36.1442C0.491667 35.6321 1.22083 33.7163 1.21042 33.5815C1.2 33.4468 0.65 33.0238 0.5 32.7812C0.25625 32.3915 0.241667 31.9996 0.00625 31.6409V29.1529L0 29.155ZM13.4354 28.222C14.4917 30.625 16.4563 32.7439 18.6979 34.0999C20.4188 35.1407 20.8167 35.0743 22.6917 35.4102C23.4646 35.5491 23.9708 36.0737 24.9083 36.1566C31.8521 36.7765 37.9438 32.2733 39.6646 25.6428C40.7792 21.3427 39.9708 16.3108 36.7104 13.1365C33.6646 22.7464 23.4917 29.0928 13.4354 28.2199V28.222ZM5.93542 26.8225C5.12708 26.7956 4.55833 26.2005 4.06458 25.6511C3.84167 25.4044 3.58125 24.5647 3.36042 24.9586C2.47292 26.5488 2.3875 29.3789 2.34375 31.1744L3.75208 29.2359C4.23125 28.8813 4.53333 28.2987 4.9125 27.9027C5.08542 27.7203 6.175 27.09 5.93333 26.8225H5.93542ZM18.275 36.4655C15.5042 35.1241 13.2771 32.775 11.7458 30.1336C11.0958 29.0119 10.8813 27.1708 9.19375 27.5254C8.5625 27.6581 6.20625 29.9512 5.69792 30.5504C3.68333 32.9243 2.45833 36.0612 2.33542 39.1754C2.31042 39.8036 2.16458 41.0372 2.92083 41.2487C3.21875 41.3316 4.49375 41.4187 4.9125 41.4436C7.17083 41.5701 11.5813 41.6364 13.6583 40.9626C14.6562 40.6391 14.8813 39.7912 15.5375 39.1028C15.9979 38.6177 16.5271 38.0703 17.0229 37.6266C17.2521 37.4193 18.4604 36.733 18.2729 36.4655H18.275ZM21.3583 37.7448C18.6708 38.1905 14.6104 43.4734 14.2458 46.0671C14.0021 47.7963 16.0646 48.6111 17.0083 46.7845C17.9375 44.989 18.0438 43.8341 19.7646 42.3766C20.9188 41.398 23.0896 40.917 23.0896 39.1837C23.0896 37.9874 22.4979 37.554 21.3583 37.7448ZM25.15 40.8174H27.7271C28.2458 40.8174 29.4583 41.3752 29.9896 41.5949L30.7708 37.863C29.0125 38.4559 27.1458 38.5389 25.3063 38.485L25.15 40.8174ZM32.3396 42.0552C34.7521 42.6337 40.1708 43.0691 42.075 41.2611C42.9792 40.4028 42.2479 39.107 41.1188 38.9805C40.3333 38.8934 38.9542 39.6108 38.0167 39.7103C36.1417 39.9073 34.6688 39.4491 32.9604 38.796L32.3396 42.0552ZM22.9208 43.1852C21.8708 43.4008 20.3 45.0615 19.8125 46.0008C19.3792 46.8342 19.2958 47.6698 18.7188 48.4887C18.1417 49.3077 17.4167 49.5088 16.9563 50.0002C16.7208 50.2531 16.5938 50.8129 16.3771 51.1343C16.225 51.3603 15.4333 52.0175 15.5417 52.171C20.6125 54.2111 26.725 54.209 31.7917 52.171L30.4958 50.3464C29.3375 48.2026 30.7521 43.5065 27.4146 43.1499C26.55 43.0587 23.7021 43.0255 22.9188 43.1852H22.9208ZM9.41042 56.9521C9.56042 57.064 9.74583 57.1055 9.92917 57.1304C10.9188 57.263 15.6292 56.3632 16.7771 56.0398C16.9875 55.9797 17.9604 55.6707 17.9625 55.5111L13.9979 54.1945C13.6563 54.207 10.0188 55.3307 9.7 55.5235C9.11875 55.876 9.0875 56.3943 9.4125 56.9521H9.41042ZM30.7729 59.8651C31.0479 58.5672 30.5688 56.3694 30.7729 54.9679L28.2667 55.679C28.6479 56.9127 28.2813 58.3184 28.425 59.5582C28.6063 61.107 30.5542 60.8934 30.7708 59.8651H30.7729Z" fill="white"/>
<path d="M79.9792 24.1792C79.9188 24.8509 79.6729 25.8959 79.4979 26.578C78.3709 31.0212 75.1021 34.9003 70.9188 36.7767C70.6375 37.1395 72.7584 38.4582 73.0688 38.5991C74.5479 39.2688 75.75 38.9454 77.1729 39.3352C80.7604 40.3179 80.75 45.5261 77.1729 46.5006C75.7167 46.8987 73.4542 46.5669 71.9792 46.2145C70.8417 45.9429 69.7625 45.4225 68.6688 45.0285C68.175 45.748 67.6292 46.1917 66.8917 46.6436C67.5521 48.6112 69.2896 49.6147 69.9854 51.6196C70.6209 53.4524 70.95 58.9447 70.3688 60.7215C69.4542 63.5143 65.2271 63.8232 63.9604 61.1963C62.925 59.0463 64.5063 56.7366 62.5563 54.9763C61.4229 53.9542 59.8688 53.1228 58.6875 52.1297L58.2667 52.0861C56.5834 52.7351 54.5563 53.7427 52.7209 53.7427C51.3292 53.7427 45.0021 51.8435 43.8438 51.0598C42.3188 50.0273 41.9979 48.0763 43.0459 46.5856C44.2917 44.815 46.2854 45.2255 48.1125 45.6422C47.6125 43.9815 48.8459 42.1881 49.8354 40.9047C51.2 39.1341 53.2313 37.4837 55.2979 36.6212C55.5042 36.3413 53.9688 35.5617 53.6875 35.3503C49.0542 31.8878 46.8813 27.4447 47.1709 21.6103C47.2479 20.0367 47.3021 19.8045 47.175 18.1956C47.0146 16.172 47.3834 14.0137 48.1104 12.127C48.3229 11.5734 49.1896 10.1718 49.2104 9.7841C49.2271 9.45237 48.6771 8.75366 48.5354 8.29131C47.5917 5.21657 50.0104 2.72858 53.1209 3.28008C53.8709 1.04504 55.8396 -0.493366 58.2771 0.151438C59.4834 0.47073 59.9334 1.23164 60.7229 2.0817C63.4584 1.77278 66.2146 1.85156 68.8584 2.67882C69.4896 2.87578 71.3813 3.56205 71.6209 4.126C71.9771 4.95533 71.4104 5.84478 70.5313 5.84271C70.1167 5.84271 68.1667 4.88691 67.4521 4.70238C65.6896 4.24418 63.7584 4.16332 61.9354 4.27528C61.1979 4.32089 60.3146 4.72312 59.6021 4.58835C58.6042 4.40175 58.3625 1.27518 56.3417 2.59589C54.8625 3.56205 55.8417 5.61257 54.8292 6.06456C53.6063 6.60984 52.4396 4.84752 51.1813 5.85515C50.4271 6.46056 50.65 7.48893 51.1084 8.21874C51.2959 8.51937 51.75 8.7889 51.8313 9.05221C52.1417 10.0764 51.0709 11.2105 50.6375 12.1539C49.825 13.9204 49.3917 15.8548 49.5229 17.8079C51.1709 16.8562 52.3229 15.4754 53.2959 13.8685C53.8167 13.0081 53.9646 11.6605 55.3688 11.7475C56.1959 11.7994 58.0688 13.939 58.8209 14.5362C61.6646 16.7982 65.0084 17.783 68.5771 18.2723C68.5667 17.0428 67.475 15.0275 68.6792 14.0945C70.2584 12.8692 71.5063 14.843 72.6542 15.6931C74.0459 16.7235 75.7646 17.6192 77.475 17.9571C78.0042 15.6931 76.9125 12.863 75.7333 10.9182C75.1188 9.90435 72.8834 8.01348 73.9334 6.96645C74.7625 6.13919 75.5729 6.90633 76.1563 7.54284C77.8646 9.40883 79.7 13.1242 79.9813 15.6309V17.8079C79.2771 19.1472 79.6625 20.4555 79.9813 21.8508C79.9334 22.6097 80.0479 23.4349 79.9813 24.1833L79.9792 24.1792ZM70.3959 19.9268C69.3084 21.0091 66.6979 20.3601 65.2938 20.0595C61.5125 19.2509 58.2688 17.3704 55.5313 14.6958C54.1854 17.0677 52.2209 19.1804 49.7021 20.3207C48.6979 25.5372 50.8042 30.4427 55.0896 33.4801C57.5646 35.2341 61.8771 36.3745 64.8813 36.1319C72.5146 35.5182 79.3313 28.2159 77.2167 20.4327C74.9729 19.7775 72.8479 18.7512 70.9917 17.3372C70.9354 18.237 71.1209 19.2032 70.3917 19.9268H70.3959ZM59.0146 37.747C57.9396 37.8403 56.55 38.5017 55.6063 39.0262C55.2563 39.2211 53.5313 40.2474 53.5896 40.5647L55.5542 42.5136C56.7063 41.4334 59.725 41.367 60.4313 40.0982C61.1375 38.8293 60.5313 37.6185 59.0146 37.7491V37.747ZM68.2625 37.8631C66.5188 38.2488 64.75 38.5826 62.9521 38.4851C63.2334 39.6254 62.6646 41.2862 61.8584 42.1383C61.5334 42.4825 61.0375 42.696 60.6584 42.9593C60.5229 43.0526 60.3688 42.9324 60.4542 43.3056L66.075 44.3215C67.0375 43.9234 68.0521 38.991 68.2646 37.8652L68.2625 37.8631ZM72.15 40.6808L70.2959 39.7291L69.5313 42.8204L71.5417 43.6187L72.15 40.6828V40.6808ZM73.7313 44.2365C74.9167 44.2469 77.25 44.8025 77.5771 43.1542C77.8854 41.6055 75.6229 41.2136 74.5042 41.508L73.7313 44.2365ZM51.7875 42.2171C51.0729 43.1273 49.6917 44.7776 50.7584 45.8786C51.9375 47.0956 53.4146 45.1778 53.8521 44.1577L51.7854 42.215L51.7875 42.2171ZM64.4854 46.4425L56.9271 44.8523C55.0542 45.2296 55.8729 46.4011 56.7063 47.4211C58.7834 49.9651 64.8542 52.6583 65.6521 55.4656C66.0813 56.9812 65.6271 58.8742 65.9521 59.9875C66.2271 60.933 68.0334 61.0056 68.2479 59.5397C68.45 58.1485 68.3292 54.9369 68.0667 53.5312C67.5063 50.5208 64.7542 49.5069 64.4875 46.4446L64.4854 46.4425ZM54.1875 47.8254C51.4917 49.3659 48.5188 47.927 45.6834 47.5227C44.2125 48.0618 44.65 48.9658 45.8854 49.4862C47.0125 49.961 51.8209 51.4289 52.8688 51.3936C53.9167 51.3584 55.1709 50.6763 56.2354 50.4544L54.1875 47.8254Z" fill="white"/>
<path d="M35.1063 22.6511C37.0688 22.253 36.8542 26.0389 36.0813 26.5842C35.3084 27.1295 34.3625 26.7065 34.2188 25.8025C34.075 24.8986 33.9792 22.8792 35.1063 22.6511Z" fill="white"/>
<path d="M67.4375 24.2248C68.6 25.1557 67.0062 26.5407 66.1354 26.9574C64.352 27.8116 61.9291 27.5359 60.6833 25.8897C59.8208 24.7493 60.7562 23.6837 62.0229 24.09C62.3979 24.2103 62.6812 24.683 63.0979 24.8841C65.202 25.9021 66.0916 23.1446 67.4354 24.2227L67.4375 24.2248Z" fill="white"/>
<path d="M73.5333 22.1845C75.4958 21.7865 75.2812 25.5723 74.5083 26.1176C73.7354 26.6629 72.7895 26.24 72.6458 25.336C72.502 24.432 72.4062 22.4126 73.5333 22.1845Z" fill="white"/>
<path d="M53.4645 26.0058C53.0312 25.5414 53.027 23.6982 53.1854 23.0865C53.527 21.7721 55.2416 21.9276 55.452 23.0161C55.5187 23.3664 55.5145 25.3154 55.4229 25.6243C55.2041 26.3686 53.9708 26.5449 53.4645 26.0058Z" fill="white"/>
</g>
<defs>
<clipPath id="clip0_252_313">
<rect width="80" height="63" fill="white"/>
</clipPath>
</defs>
</svg>
