<svg width="112" height="112" viewBox="0 0 112 112" fill="none" xmlns="http://www.w3.org/2000/svg">
<circle cx="56" cy="56" r="55" stroke="white" stroke-width="2"/>
<g clip-path="url(#clip0_2242_29)">
<path d="M49.7487 22C50.7598 22.4582 51.3848 23.0518 51.5 24.1924C51.6375 25.5519 51.6737 27.7087 50.2084 28.3625C50.0779 28.4213 49.3571 28.6401 49.2765 28.6401H47.0516V35.1476H55.211C55.7846 35.1476 56.6706 36.0325 56.8678 36.57C57.1428 37.3208 57.1581 39.8469 56.7887 40.5527C56.5234 41.0587 55.4999 41.7877 54.9416 41.7877H52.5819V45.6391C53.475 45.2808 54.2763 44.7255 55.2054 44.4383C58.7122 43.351 62.6217 43.9883 65.4577 46.3079C65.7855 46.576 66.8063 47.7699 67.0799 47.7699C68.3992 46.6402 69.37 45.5912 71.0102 44.8622C82.3652 39.8196 91.5967 54.4525 81.9847 62.1772L67.0826 74.9609L52.5819 62.6408V69.7459C52.5819 70.0961 52.075 71.4747 51.8723 71.8358C51.1987 73.0325 49.564 74.3701 48.1377 74.4658C48.346 76.4421 47.7599 78.0902 45.8392 78.9094V83.3585H43.681V89.9986H41.388V83.3585H39.2298V78.9094C37.3368 78.0574 36.7883 76.438 36.923 74.474C34.1675 73.9762 32.4996 71.4979 32.4801 68.8227L32.4871 41.7891H30.1261C29.3983 41.7891 28.4914 40.9931 28.2414 40.3243C27.9359 39.5078 27.8984 37.2771 28.2525 36.4906C28.4539 36.0434 29.3678 35.1489 29.8566 35.1489H38.1507V28.6415H35.7911C35.1161 28.6415 34.1273 27.9795 33.8717 27.3449C33.6162 26.7103 33.5926 24.1076 33.7648 23.458C33.937 22.8083 34.7203 22.2681 35.3189 22H49.7501H49.7487ZM49.2099 24.258H35.8577V26.3834H49.2099V24.258ZM44.7587 28.6401H40.3075V35.1476H44.7587V28.6401ZM54.7388 37.4056H30.3288V39.531H54.7388V37.4056ZM50.2876 41.7891H34.7786V69.8786C34.7786 70.092 35.4008 71.1205 35.5911 71.3365C36.5133 72.3883 37.8924 72.5483 39.2298 72.469V43.9144H41.388V45.9728L41.5908 46.1725H45.8392V48.2979H41.388V52.6813H45.8392V54.9394H41.388V59.1231L41.5908 59.3228H45.8392V61.4482H41.5908L41.388 61.6479V65.8316H45.8392V68.0897H41.388V72.4731H47.3891C47.4655 72.4731 48.3474 72.1681 48.4932 72.0997C49.3932 71.6812 50.1529 70.7197 50.2737 69.735C50.4723 68.1047 50.5404 61.9857 50.2821 60.4593C50.2057 60.0094 49.1863 58.6007 48.9168 57.9524C47.5794 54.7492 47.9752 51.7568 49.6418 48.7902C49.771 48.5605 50.289 48.0189 50.289 47.9669V41.7904L50.2876 41.7891ZM57.2706 46.208C50.1515 47.0054 47.9294 56.4999 53.6569 60.5838L67.0035 72.019C67.1118 72.0464 67.802 71.4651 67.9562 71.342C72.0935 68.0377 77.0766 63.8102 80.9028 60.1858C86.965 54.4443 82.6944 45.4394 74.3615 46.1739C71.1172 46.4597 69.2089 48.8641 67.0771 50.9512C65.5535 49.5534 64.1439 47.7275 62.2023 46.855C60.6691 46.1656 58.9358 46.022 57.2692 46.208H57.2706ZM45.8378 74.5944H39.2298C39.2076 75.8116 39.0076 76.7239 40.5047 76.8593C41.3186 76.9331 44.4851 76.9591 45.1281 76.7498C46.142 76.4189 45.7864 75.4314 45.8392 74.5944H45.8378ZM43.6796 78.9764H41.5894L41.3866 79.1761V81.2345H43.6796V78.9764Z" fill="white"/>
<path d="M75.9131 50.5545L76.0492 48.2979C81.1378 48.8436 83.3113 54.566 79.7629 58.2656L70.0467 66.6248C69.9467 66.6248 68.7426 65.2654 68.6898 65.1655C68.637 65.0657 68.5995 65.0014 68.6898 64.9016L78.6101 56.2003C80.2531 53.8931 78.7685 50.7063 75.9144 50.5559L75.9131 50.5545Z" fill="white"/>
</g>
<defs>
<clipPath id="clip0_2242_29">
<rect width="58" height="68" fill="white" transform="translate(28 22)"/>
</clipPath>
</defs>
</svg>
