<svg width="111" height="112" viewBox="0 0 111 112" fill="none" xmlns="http://www.w3.org/2000/svg">
<path d="M55.5 1C85.5911 1 110 25.6159 110 56C110 86.3841 85.5911 111 55.5 111C25.4089 111 1 86.3841 1 56C1 25.6159 25.4089 1 55.5 1Z" stroke="white" stroke-width="2"/>
<g clip-path="url(#clip0_2242_26)">
<path d="M57.0665 63.6531C56.9741 63.8354 56.9357 64.0367 56.9141 64.2409C56.4184 68.8085 56.2689 73.7845 55.5648 78.2734C55.3966 79.3453 55.3514 79.7378 54.186 79.8484L35.4109 79.8115C35.0343 79.6721 34.6242 79.5127 34.5465 79.0664L33.7804 72.8182C33.1765 74.712 33.0477 77.2563 32.3455 79.0654C32.0869 79.7308 31.7889 79.7866 31.1192 79.8484C29.7315 79.9779 26.61 79.9998 25.247 79.8434C24.5478 79.7627 23.9341 79.3792 24.0069 78.5992C25.485 73.385 26.3268 67.8093 27.858 62.633C30.1219 54.9832 36.4209 51.0492 44.1873 51.3381C54.243 51.7127 64.0598 52.9739 74.1884 52.4299C76.9706 52.2805 81.0952 50.849 82.1838 54.5857C83.2725 58.3225 79.265 59.6115 76.5497 60.6297C70.29 62.9767 63.7569 63.9251 57.0685 63.6541L57.0665 63.6531ZM26.3799 77.6807H30.5134L33.1372 66.2233C33.6152 64.8954 35.2211 65.1375 35.2801 66.572L36.5281 77.6657L53.3599 77.6856C53.5222 77.6478 53.5664 77.2264 53.5822 77.074C54.0611 72.4924 54.2558 67.5553 54.9324 63.0425C55.2255 61.0879 55.8667 61.4147 57.6477 61.4734C63.6606 61.6717 68.9082 61.0421 74.6191 59.0776C75.8603 58.6502 78.3149 57.7875 79.3643 57.131C80.8788 56.1826 80.3684 54.3257 78.7064 54.0527C70.8299 55.0639 62.8846 54.5947 54.9875 54.1733C50.6898 53.9442 43.2048 52.8603 39.3133 53.8395C35.0441 54.9145 31.367 58.434 30.0187 62.6589L26.3809 77.6807H26.3799Z" fill="white"/>
<path d="M76.3825 79.0993C76.2911 79.5376 75.6725 79.8455 75.2486 79.8425C69.9685 79.4759 64.0451 80.3296 58.8407 79.8494C58.113 79.7827 57.5937 79.5127 57.5662 78.6968C58.168 74.8545 58.2005 70.784 58.7984 66.9606C59.0118 65.5948 59.1436 65.3736 60.5834 65.2571C66.6768 64.76 71.9914 64.3396 77.7515 61.9826C78.6828 61.601 80.9516 60.2452 81.6853 60.1466C82.2311 60.0738 82.6382 60.4584 82.8497 60.9326L87.9223 78.2147C88.1839 79.1421 87.7768 79.7339 86.8523 79.8455L78.908 79.7817L78.2678 79.2149L76.3815 75.25C76.2232 76.3558 76.5949 78.0772 76.3815 79.0993H76.3825ZM85.5827 77.6807L81.106 62.8323C74.8011 65.806 67.8717 67.1449 60.9335 67.4348L59.8478 77.6817H74.3822V69.9153C74.3822 69.3415 75.7482 69.0546 76.1219 69.5417L79.8492 77.6817H85.5827V77.6807Z" fill="white"/>
<path d="M52.6007 34.6407C61.1931 43.2558 47.412 56.2224 39.5838 46.5433C32.678 38.0039 44.8138 26.8325 52.6007 34.6407ZM45.8198 34.2293C36.9806 35.0989 38.3004 48.7638 47.3668 47.682C55.6435 46.6937 54.4329 33.3825 45.8198 34.2293Z" fill="white"/>
<path d="M66.8873 35.0395C76.2616 34.0961 78.7526 47.8496 70.0108 50.4946C58.9814 53.8308 55.7094 36.1642 66.8873 35.0395ZM66.7496 37.1953C59.3679 38.2134 61.1046 50.1718 68.8168 48.6087C75.7875 47.1961 74.2543 36.1592 66.7496 37.1953Z" fill="white"/>
<path d="M41.2822 60.4275C41.9352 60.3319 42.5764 60.3996 43.2088 60.567C43.6376 60.6806 44.6722 61.3391 44.8492 61.3331C45.0154 61.3271 45.6881 60.8469 45.9831 60.7314C49.8136 59.2311 52.9538 63.184 50.8905 66.6478C50.0202 68.1092 47.2036 71.4366 45.9772 72.7466C45.1875 73.5903 44.7321 73.9121 43.7782 72.9558C42.8429 72.0183 38.9858 67.3242 38.4902 66.2912C37.3661 63.9471 38.6308 60.8141 41.2822 60.4265V60.4275ZM44.0182 63.7289C43.8844 63.6194 43.7625 63.2926 43.5137 63.0934C42.5027 62.2825 40.8121 62.2845 40.3165 63.6363C39.8719 64.8487 40.3696 65.3518 41.0511 66.2643C42.2007 67.8054 43.609 69.3117 44.8482 70.79L49.1056 65.5151C50.3378 63.2916 47.8989 61.5483 46.0274 63.1402C45.8631 63.2797 45.7746 63.5905 45.516 63.7698C45.0695 64.0786 44.4509 64.0826 44.0191 63.7289H44.0182Z" fill="white"/>
</g>
<defs>
<clipPath id="clip0_2242_26">
<rect width="64" height="48" fill="white" transform="translate(24 32)"/>
</clipPath>
</defs>
</svg>
