<svg width="78" height="78" viewBox="0 0 78 78" fill="none" xmlns="http://www.w3.org/2000/svg">
<g clip-path="url(#clip0_253_56)">
<path d="M41.8945 0L46.7999 0.654062C56.9704 2.69547 60.4743 9.80078 60.9435 19.5691C61.0329 21.4358 60.714 23.7453 60.9334 25.5206C61.0228 26.2437 61.4818 26.9141 61.5529 27.7956C61.7764 30.613 60.1046 37.2795 58.3456 39.5281C57.6082 40.4686 56.7328 41.1186 55.4734 40.9987C55.126 42.2277 54.8092 43.4809 54.3521 44.6773C54.0637 45.433 53.1761 46.8792 53.0501 47.4886C52.78 48.8109 52.9364 52.7861 53.0095 54.3156C53.042 55.0164 53.2776 55.7558 53.1842 56.5033L77.6506 64.9431L78 65.5078V66.1172C77.5937 66.625 77.1895 67.1816 76.44 67.0008L53.0156 58.957C52.7393 60.645 52.9181 62.3614 52.8673 64.0676C52.8084 66.0217 52.6215 68.0408 52.5504 69.9969C52.4712 72.1784 52.6621 74.7155 52.4082 76.8625C52.3371 77.4678 52.0995 77.6506 51.6425 78.002H50.7284C50.5415 77.8416 49.9667 77.3825 49.9667 77.1652V74.9552L47.3768 78.002H46.4628L39.845 70.8337C39.4164 70.588 38.4678 70.5676 38.0757 70.9089L31.5331 78.002H30.619L27.8789 74.8028C27.9337 75.9647 28.4882 77.2809 27.2675 78.002H26.3534L25.5998 77.0026L24.5232 58.9591L1.6798 66.9642C0.918081 67.2161 0.410269 66.8769 -0.0020752 66.2716V65.3575L0.757612 64.6709L24.4989 56.3448L24.8035 47.6491C23.7392 45.5955 22.8373 43.4606 22.2279 41.2222C21.5657 40.8627 20.9117 40.8484 20.2718 40.2837C18.074 38.3378 16.1667 30.5155 16.449 27.6555C16.5242 26.8998 16.9568 26.262 17.0482 25.6648C17.296 24.0581 16.965 21.7648 17.0584 20.0383C17.6921 8.52516 24.9173 0.593125 36.6254 0.140156L36.8671 0H41.8945ZM58.4979 23.918C58.6137 17.0077 58.1851 8.61859 51.4414 4.84859C45.8493 1.7225 35.1121 1.68797 29.2987 4.23922C21.5109 7.65578 19.1303 15.8112 19.4979 23.7656L20.6964 23.7433C20.8792 23.6295 20.9706 20.7472 21.0417 20.2048C21.6551 15.537 23.6234 10.9931 27.8301 8.55969C31.6956 6.32531 34.1493 7.77562 38.1529 7.92797C43.1782 8.12094 46.2637 5.71391 50.9295 9.01469C55.7821 12.4495 56.7267 18.3239 56.8242 23.9159C57.3929 23.7717 57.9434 23.6255 58.4979 23.9159V23.918ZM54.2323 20.5664C53.8728 16.5831 52.4042 12.6161 48.7967 10.5422C45.6787 8.74859 43.1478 10.2294 39.845 10.3675C34.9232 10.5706 31.4356 8.09453 27.2675 11.958C24.8665 14.1842 23.9403 17.5033 23.4589 20.6416C27.2268 19.3111 30.877 19.0775 34.6998 20.3734C35.685 20.7066 37.1454 21.7344 37.7365 21.907C38.0839 22.0086 39.5748 21.9903 39.9993 21.9477C40.6026 21.8887 41.4781 21.19 42.1443 20.8934C45.9935 19.1852 50.2978 19.0267 54.2323 20.5664ZM25.0006 22.7134C25.029 26.2336 24.2531 30.0727 28.8721 30.4647C31.0171 30.6475 33.3693 30.1742 34.4581 28.1328C35.0146 27.0908 35.555 24.6756 35.3457 23.5341C35.2482 22.9998 33.6232 22.5794 33.0931 22.4352C30.294 21.6714 27.7529 21.84 25.0026 22.7114L25.0006 22.7134ZM53.1517 22.7134C50.57 21.9091 48.0471 21.6694 45.3964 22.3153C44.8479 22.4494 42.904 23.012 42.8065 23.5341C42.4795 25.3073 43.3204 28.3217 44.8012 29.4633C46.3835 30.68 49.6762 30.8222 51.419 29.8634C53.6331 28.6447 53.0928 24.8402 53.1496 22.7134H53.1517ZM40.371 24.375H37.7792C37.7792 27.3406 36.5462 30.7734 33.7248 32.1262C31.0415 33.4141 26.0832 33.28 24.0743 30.8466L23.3106 29.7091C22.9003 39.8064 27.499 55.1464 40.1415 54.2344C51.0859 53.4442 54.1714 39.5078 54.3867 30.6231C52.9953 32.0653 51.2768 32.7641 49.2821 32.9062C43.5865 33.3145 40.4401 29.9427 40.3731 24.377L40.371 24.375ZM20.7187 26.2031C17.9826 26.2092 19.0246 30.292 19.3943 32.0227C19.7884 33.865 20.3815 36.1034 21.4784 37.6309L20.8731 32.3741L20.7187 26.2052V26.2031ZM56.0645 38.3906C56.355 38.2423 56.5357 37.8523 56.6982 37.5781C57.8479 35.618 59.4973 29.7192 59.0423 27.5661C58.8006 26.4245 57.5534 25.6222 56.8221 26.7353C56.9156 30.6455 56.5439 34.5272 56.0645 38.3927V38.3906ZM50.5781 51.3398C44.3035 58.5223 33.1865 58.3659 27.1192 51.0352C27.1395 52.8206 26.7779 54.665 26.9546 56.4525C27.0135 57.0375 27.2309 57.2102 27.5782 57.657C29.5425 60.1839 33.0037 63.6655 35.4148 65.8166C36.0343 66.3691 38.226 68.2012 38.935 68.248C40.0095 68.3191 43.6271 64.5206 44.4884 63.6066C46.6375 61.3275 48.5326 58.8108 50.5781 56.4423V51.3398ZM50.4237 60.6328C47.645 63.6269 45.1181 66.8525 41.9046 69.4139L46.6984 74.8008C47.0681 74.8922 49.5584 71.2034 50.0906 70.7322L50.4237 60.6328ZM27.1192 60.9375L27.6067 70.2731C28.7015 71.4919 29.6643 73.2672 30.7775 74.4148C30.9014 74.5428 31.0923 74.8516 31.3015 74.8008L36.1054 69.3977C32.7051 67.0333 30.0584 63.8117 27.1192 60.9375Z" fill="white"/>
<path d="M34.7019 40.8727C35.4779 40.8077 35.9674 40.8646 36.7149 41.0555C37.3466 41.2139 38.673 41.9696 39.0752 41.9838C39.6277 42.0021 40.9419 40.9702 41.8621 40.8646C43.0382 40.7285 47.771 41.4679 46.0932 43.43C45.1588 44.5208 43.414 43.1985 42.2826 43.2736C41.5777 43.3204 40.3143 44.4213 39.2072 44.4761C37.9011 44.5411 36.6296 43.3244 35.4149 43.2594C34.2002 43.1944 30.938 44.9779 31.2204 42.4246C31.3402 41.348 33.7818 40.9539 34.7019 40.8768V40.8727Z" fill="white"/>
<path d="M35.1467 34.1575C36.5036 33.8488 37.8646 34.7445 39.0752 34.7445C40.0847 34.7445 44.1106 33.018 43.9806 35.3966C43.9096 36.7027 42.6156 36.4305 41.856 36.6011C41.141 36.7616 40.3914 37.0845 39.6663 37.1516C38.3642 37.2714 37.505 36.8631 36.2944 36.5991C35.6546 36.4589 35.1325 36.7474 34.5719 36.1888C33.926 35.5449 34.2388 34.3627 35.1447 34.1575H35.1467Z" fill="white"/>
<path d="M37.4339 45.1263C37.9072 45.0206 40.2451 45.0247 40.6839 45.1628C41.7726 45.5041 41.7015 47.3261 40.4381 47.5231C39.9242 47.6044 37.765 47.6044 37.3161 47.4642C36.2578 47.1331 36.3126 45.3781 37.4319 45.1283L37.4339 45.1263Z" fill="white"/>
<path d="M29.378 25.9186C29.055 25.7297 27.95 26.7352 27.1822 25.7562C25.8131 24.0072 29.1728 23.1744 30.3875 23.146C31.6022 23.1176 34.251 23.9219 33.4811 25.4779C32.9631 26.526 32.3294 25.9877 31.7789 26.0852C31.3524 26.1604 31.1025 27.2511 29.9528 26.6397C29.5852 26.4427 29.4288 25.9511 29.3739 25.9186H29.378Z" fill="white"/>
<path d="M46.6719 26.451C46.5724 26.3759 46.5379 26.1077 46.3794 26.0732C45.9508 25.9798 44.9169 26.5912 44.5533 25.4476C44.1247 24.1049 45.7619 23.3107 46.8588 23.1685C48.1832 22.9959 51.7521 23.4996 51.1569 25.4841C50.771 26.774 49.0952 25.8335 48.8515 25.9087C48.4168 26.0407 48.1405 27.5702 46.674 26.451H46.6719Z" fill="white"/>
</g>
<defs>
<clipPath id="clip0_253_56">
<rect width="78" height="78" fill="white"/>
</clipPath>
</defs>
</svg>
