<svg width="72" height="72" viewBox="0 0 72 72" fill="none" xmlns="http://www.w3.org/2000/svg">
<g clip-path="url(#clip0_252_307)">
<path d="M71.9999 15.2717V17.6639L71.3969 20.9305C69.8346 27.0863 64.2554 31.608 58.0944 32.6816C56.331 32.9883 54.5466 32.8579 52.852 33.5648C52.792 33.7746 52.9225 33.8063 52.986 33.9226C53.5009 34.864 54.5695 35.9658 55.2201 36.8966C58.9161 42.1922 66.4261 54.6238 61.2313 60.5822C57.4948 64.8677 50.0977 62.4561 45.7176 60.4641C43.2225 59.3288 40.8173 57.9097 38.562 56.3619C38.093 57.6171 37.8003 58.9075 37.2907 60.1538C34.8837 66.0365 29.4192 70.4524 23.1523 71.6335C22.417 71.7728 21.5936 71.7463 20.8918 71.979C19.9255 71.9261 18.8922 72.0513 17.9347 71.979C-2.2254 70.4594 -6.91407 42.2521 11.7436 34.626C12.9903 34.1166 14.2811 33.8239 15.5383 33.355C14.9723 32.6023 14.4451 31.7984 13.969 30.9875C11.0877 26.0956 6.23326 16.2889 10.7509 11.2612C15.7587 5.68711 27.081 11.6367 32.1435 14.794C34.0462 15.9804 36.1727 17.9477 37.9907 18.9402C38.1071 19.0037 38.1388 19.1341 38.3487 19.0742C39.1986 16.3858 39.0399 13.7839 39.9744 11.0603C45.8005 -5.92124 70.6457 -2.42199 71.9982 15.2752L71.9999 15.2717ZM55.3612 2.92297C48.613 2.9829 43.323 7.83426 42.1892 14.3956C41.9529 15.7636 42.0164 17.1826 41.6866 18.5365C41.0007 21.3606 38.3733 24.532 36.312 26.5328C35.1994 27.6134 33.2756 28.3538 33.8134 30.1484C34.6245 32.8561 39.1192 37.4237 41.8647 38.1411C43.5522 38.5819 44.3669 36.6498 45.3861 35.6009C46.9502 33.9914 49.2354 32.0276 51.2491 31.0492C54.3755 29.5296 57.6377 30.1219 60.9703 28.6641C74.4333 22.7779 69.7217 2.79428 55.3594 2.92297H55.3612ZM36.6612 21.6074C32.5509 18.644 28.4212 15.6155 23.7043 13.6587C18.5201 11.508 11.1582 9.8774 12.024 18.1557C12.9057 26.5716 22.6022 38.5572 28.5622 44.4028C34.323 50.0527 47.0313 60.1591 55.3312 60.004C62.2964 59.8735 59.8101 51.8367 58.0873 47.8227C56.1335 43.2693 53.187 39.2482 50.3163 35.2536C50.2141 35.1848 48.5989 36.6216 48.4155 36.7979C45.275 39.7947 44.485 42.9255 39.3344 40.2513C36.1145 38.5801 33.4184 35.8653 31.7098 32.6746C30.2021 29.8575 30.1175 28.1299 32.505 25.8224C33.9174 24.4562 35.6138 23.342 36.6629 21.6074H36.6612ZM19.4846 39.0525C19.5375 38.8234 19.4388 38.7264 19.3471 38.5572C18.9345 37.785 17.9382 36.9283 17.4533 36.1456C7.70211 37.302 1.24835 46.5023 3.33789 56.1046C5.42566 65.7015 15.63 71.2598 24.9069 68.0408C30.7805 66.003 35.083 60.6439 35.7689 54.451L33.0023 52.4202C32.87 55.1579 32.1876 57.7123 30.6659 60.0058C22.2213 72.7194 1.90959 63.4151 6.57358 48.3093C7.83083 44.2371 12.9709 39.0525 17.4445 39.0525H19.4864H19.4846ZM18.0475 42.0476C10.4123 42.8691 6.42899 51.9566 10.698 58.3152C15.4995 65.467 26.6261 64.0621 29.3804 55.9054C29.9376 54.2553 30.2585 50.7702 29.3451 49.2488C28.9078 48.5208 27.2556 47.3203 26.5926 46.6539C25.6651 45.7232 23.5544 43.1036 22.6586 42.5659C21.6835 41.9806 19.1778 41.9277 18.0493 42.0494L18.0475 42.0476Z" fill="white"/>
<path d="M23.0942 18.8395C25.8326 21.5931 21.5848 25.838 18.8305 23.1003C16.0021 20.2904 20.2817 16.0119 23.0942 18.8395Z" fill="white"/>
<path d="M53.083 48.8115C55.9114 51.6215 51.6318 55.8999 48.8193 53.0723C46.0068 50.2447 50.3287 46.0738 53.083 48.8115Z" fill="white"/>
<path d="M54.09 6.02706C55.1145 5.916 56.7861 5.77321 56.943 7.1782C57.167 9.17551 55.0651 8.84938 53.8061 9.12086C51.4062 9.63738 49.1862 11.6576 48.3786 13.9687C47.9325 15.2432 48.2869 18.2859 46.2009 17.921C44.0708 17.549 45.254 13.6725 45.7883 12.3645C47.1284 9.08032 50.5475 6.41489 54.0917 6.02883L54.09 6.02706Z" fill="white"/>
</g>
<defs>
<clipPath id="clip0_252_307">
<rect width="72" height="72" fill="white"/>
</clipPath>
</defs>
</svg>
