<svg width="329" height="73" viewBox="0 0 329 73" fill="none" xmlns="http://www.w3.org/2000/svg">
<g clip-path="url(#clip0_217_122)">
<path d="M93.7178 44.1489C93.6612 44.4255 93.4407 44.5922 93.1635 44.5922H83.0027C82.7256 44.5922 82.5019 44.4255 82.4484 44.1489L69.9002 6.24357C69.8435 6.02036 70.0104 5.80029 70.2341 5.80029H78.7287C79.0058 5.80029 79.2295 5.96692 79.283 6.24357L88.5556 36.9432L97.6612 6.24357C97.7179 5.96692 97.9384 5.80029 98.2155 5.80029H105.655C105.879 5.80029 106.042 6.02351 105.989 6.24357L93.7178 44.1489Z" fill="white"/>
<path d="M122.921 44.5923C122.698 44.5923 122.477 44.3691 122.477 44.1491L122.588 41.2662C120.588 43.7058 117.756 45.1457 114.15 45.1457C106.043 45.1457 101.768 38.7165 101.768 30.4042C101.768 22.0919 106.543 15.4961 114.317 15.4961C117.869 15.4961 120.644 16.7693 122.588 19.0989L122.421 16.4958C122.421 16.2726 122.644 16.0526 122.865 16.0526H130.361C130.585 16.0526 130.805 16.2758 130.805 16.4958L130.695 30.3507L130.805 44.1491C130.805 44.3723 130.581 44.5923 130.361 44.5923H122.921ZM116.48 39.6062C120.534 39.6062 122.698 36.5598 122.755 30.5174C122.811 24.4215 120.644 21.0953 116.647 21.0418C112.427 20.9318 110.263 24.0882 110.263 29.9641C110.263 36.3932 112.484 39.6628 116.48 39.6062Z" fill="white"/>
<path d="M146.736 45.3122C137.577 45.3122 132.134 39.4929 132.134 30.4041C132.134 21.3152 137.574 15.3293 146.903 15.3293C154.286 15.3293 159.061 19.4855 159.672 25.748C159.728 25.9713 159.505 26.1913 159.284 26.1913H152.456C152.232 26.1913 152.012 26.0247 151.955 25.748C151.344 22.4784 149.29 20.9254 146.903 20.9254C142.682 20.982 140.685 24.0284 140.685 30.3475C140.685 36.6666 142.739 39.713 146.903 39.7696C149.734 39.8262 151.845 37.8298 152.179 34.0604C152.235 33.7837 152.456 33.6171 152.679 33.6171H159.675C159.898 33.6171 160.119 33.8403 160.062 34.0604C159.508 40.5995 154.232 45.309 146.739 45.309L146.736 45.3122Z" fill="white"/>
<path d="M161.839 13.2826C161.615 13.2826 161.394 13.0594 161.394 12.8394V6.24357C161.394 6.02036 161.618 5.80029 161.839 5.80029H169.388C169.612 5.80029 169.832 6.02351 169.832 6.24357V12.8394C169.832 13.0626 169.609 13.2826 169.388 13.2826H161.839ZM161.839 44.5922C161.615 44.5922 161.394 44.3689 161.394 44.1489L161.505 30.3506L161.394 16.4956C161.394 16.2724 161.618 16.0524 161.839 16.0524H169.388C169.612 16.0524 169.832 16.2756 169.832 16.4956L169.722 30.3506L169.832 44.1489C169.832 44.3721 169.609 44.5922 169.388 44.5922H161.839Z" fill="white"/>
<path d="M172.33 44.5923C172.106 44.5923 171.886 44.3691 171.886 44.149L171.996 30.904V16.4958C171.996 16.2726 172.22 16.0525 172.44 16.0525H179.603C179.826 16.0525 180.047 16.2757 180.047 16.4958L179.88 19.6554C181.823 17.1623 185.099 15.3892 189.096 15.3892C195.146 15.3892 199.089 19.4887 199.089 26.4712V32.4571L199.2 44.149C199.2 44.3722 198.976 44.5923 198.756 44.5923H191.206C190.982 44.5923 190.762 44.3691 190.762 44.149L190.872 32.4571V26.5844C190.872 23.4814 189.039 21.4851 186.541 21.4851C183.543 21.4851 180.324 24.2548 180.324 30.3507V32.4571L180.434 44.149C180.434 44.3722 180.21 44.5923 179.99 44.5923H172.33Z" fill="white"/>
<path d="M221.408 44.5923C221.184 44.5923 220.964 44.3691 220.964 44.1491L221.074 41.2662C219.074 43.7058 216.243 45.1457 212.636 45.1457C204.529 45.1457 200.255 38.7165 200.255 30.4042C200.255 22.0919 205.03 15.4961 212.803 15.4961C216.356 15.4961 219.131 16.7693 221.074 19.0989L220.907 16.4958C220.907 16.2726 221.131 16.0526 221.351 16.0526H228.847C229.071 16.0526 229.292 16.2758 229.292 16.4958L229.181 30.3507L229.292 44.1491C229.292 44.3723 229.071 44.5923 228.847 44.5923H221.408ZM214.967 39.6062C219.021 39.6062 221.184 36.5598 221.241 30.5174C221.298 24.4215 219.131 21.0953 215.134 21.0418C210.913 20.9318 208.75 24.0882 208.75 29.9641C208.75 36.3932 210.97 39.6628 214.967 39.6062Z" fill="white"/>
<path d="M250.278 45.4222C238.397 45.4222 230.68 37.1665 230.68 25.3048C230.68 13.4431 238.34 4.96729 250.278 4.96729C262.215 4.96729 269.931 12.7797 269.931 25.3048C269.931 37.1634 262.158 45.4222 250.278 45.4222ZM250.331 38.9396C257.326 38.9396 261.213 33.7869 261.213 25.3079C261.213 16.829 257.383 11.453 250.274 11.453C243.166 11.453 239.392 16.6624 239.392 25.3079C239.392 33.9535 243.336 38.9396 250.328 38.9396H250.331Z" fill="white"/>
<path d="M271.761 44.5923C271.538 44.5923 271.317 44.3691 271.317 44.149L271.428 30.904V16.4958C271.428 16.2726 271.651 16.0525 271.872 16.0525H279.034C279.258 16.0525 279.478 16.2757 279.478 16.4958L279.311 19.6554C281.254 17.1623 284.53 15.3892 288.527 15.3892C294.577 15.3892 298.521 19.4887 298.521 26.4712V32.4571L298.631 44.149C298.631 44.3722 298.407 44.5923 298.187 44.5923H290.637C290.414 44.5923 290.193 44.3691 290.193 44.149L290.303 32.4571V26.5844C290.303 23.4814 288.47 21.4851 285.973 21.4851C282.974 21.4851 279.755 24.2548 279.755 30.3507V32.4571L279.865 44.149C279.865 44.3722 279.642 44.5923 279.421 44.5923H271.761Z" fill="white"/>
<path d="M327.724 34.9501C327.948 34.9501 328.168 35.1733 328.112 35.3933C327.444 40.6593 322.449 45.3122 314.398 45.3122C304.848 45.3122 299.686 39.0496 299.686 30.4041C299.686 21.3152 305.126 15.3293 314.231 15.3293C323.337 15.3293 328.833 21.5919 329 31.5673C329 31.7905 328.776 32.0106 328.556 32.0106H308.071C308.404 37.3865 310.515 39.7696 314.512 39.7696C317.343 39.7696 319.343 38.4963 320.064 35.3902C320.121 35.1135 320.398 34.9469 320.619 34.9469H327.724V34.9501ZM314.288 20.8185C310.956 20.8185 308.959 22.8148 308.291 26.7478H320.005C319.671 23.7014 317.951 20.8185 314.285 20.8185H314.288Z" fill="white"/>
<path fill-rule="evenodd" clip-rule="evenodd" d="M30.5674 46.991C37.6037 46.991 43.3077 41.2975 43.3077 34.2742C43.3077 27.2508 30.5674 10.4879 30.5674 10.4879C30.5674 10.4879 17.8239 27.2508 17.8239 34.2742C17.8239 41.2975 23.5279 46.991 30.5674 46.991ZM61.0528 13.2293C53.4433 5.08988 42.6022 0 30.5674 0C18.5325 0 7.6946 5.08988 0.0850406 13.2293C0.0283469 14.207 0 15.191 0 16.1814C0 36.9527 12.5892 54.7877 30.5674 62.4996C48.5456 54.7877 61.1347 36.9527 61.1347 16.1814C61.1347 15.191 61.1064 14.207 61.0497 13.2293H61.0528Z" fill="white"/>
<path d="M89.7462 61.9933C89.0375 62.6755 87.9603 63.0151 86.5115 63.0151H84.124V68.193H82.502V55.7905H86.5146C87.9162 55.7905 88.9839 56.1301 89.7147 56.806C90.4454 57.4819 90.8107 58.3528 90.8107 59.4217C90.8107 60.4906 90.458 61.3111 89.7493 61.9933H89.7462ZM88.5083 61.0942C88.9367 60.7012 89.1509 60.1447 89.1509 59.4217C89.1509 57.8906 88.2721 57.1267 86.5115 57.1267H84.124V61.6821H86.5115C87.4154 61.6821 88.08 61.4872 88.5083 61.0942Z" fill="white"/>
<path d="M95.6643 58.727C96.1935 58.4189 96.8391 58.2649 97.5982 58.2649V59.9374H97.1699C95.3525 59.9374 94.4423 60.9214 94.4423 62.8926V68.1963H92.8202V58.4441H94.4423V60.0286C94.7289 59.4721 95.1352 59.0383 95.6643 58.7302V58.727Z" fill="white"/>
<path d="M101.246 67.7309C100.502 67.3159 99.9195 66.7249 99.4975 65.961C99.0754 65.197 98.8644 64.3104 98.8644 63.3013C98.8644 62.2921 99.0817 61.4244 99.5164 60.6573C99.951 59.8933 100.54 59.3054 101.29 58.8967C102.039 58.488 102.877 58.2837 103.803 58.2837C104.729 58.2837 105.567 58.488 106.316 58.8967C107.066 59.3054 107.655 59.8902 108.09 60.651C108.524 61.4118 108.742 62.2952 108.742 63.3013C108.742 64.3073 108.518 65.197 108.074 65.961C107.627 66.7249 107.025 67.3159 106.263 67.7309C105.501 68.1459 104.66 68.3534 103.731 68.3534C102.801 68.3534 101.986 68.1459 101.242 67.7309H101.246ZM105.372 66.5206C105.882 66.247 106.294 65.8383 106.609 65.2913C106.924 64.7443 107.082 64.0809 107.082 63.2981C107.082 62.5153 106.927 61.852 106.619 61.3049C106.31 60.761 105.907 60.3523 105.406 60.0851C104.905 59.8179 104.367 59.6858 103.784 59.6858C103.201 59.6858 102.647 59.8179 102.153 60.0851C101.658 60.3523 101.264 60.7579 100.968 61.3049C100.672 61.852 100.521 62.5153 100.521 63.2981C100.521 64.0809 100.666 64.7632 100.959 65.3102C101.249 65.8572 101.639 66.2628 102.127 66.53C102.616 66.7972 103.151 66.9293 103.731 66.9293C104.31 66.9293 104.858 66.7941 105.372 66.5206Z" fill="white"/>
<path d="M112.861 59.7771V65.524C112.861 65.9987 112.962 66.3351 113.164 66.53C113.365 66.725 113.718 66.8224 114.216 66.8224H115.41V68.1931H113.948C113.044 68.1931 112.367 67.9856 111.917 67.5706C111.466 67.1557 111.239 66.4735 111.239 65.524V59.7771H109.973V58.4409H111.239V55.9856H112.861V58.4409H115.41V59.7771H112.861Z" fill="white"/>
<path d="M126.232 63.9237H118.424C118.484 64.8858 118.814 65.634 119.413 66.1747C120.014 66.7155 120.742 66.9858 121.596 66.9858C122.298 66.9858 122.881 66.8224 123.353 66.4954C123.822 66.1684 124.153 65.7346 124.342 65.1876H126.09C125.829 66.1244 125.306 66.8884 124.522 67.4731C123.737 68.061 122.761 68.3534 121.599 68.3534C120.673 68.3534 119.841 68.1459 119.11 67.7309C118.38 67.3159 117.806 66.7249 117.391 65.961C116.975 65.197 116.767 64.3104 116.767 63.3013C116.767 62.2921 116.969 61.4087 117.372 60.651C117.775 59.8933 118.345 59.3086 119.076 58.8967C119.806 58.488 120.647 58.2837 121.599 58.2837C122.55 58.2837 123.347 58.4849 124.059 58.8873C124.77 59.2897 125.322 59.8462 125.709 60.5504C126.096 61.2578 126.288 62.0532 126.288 62.9429C126.288 63.251 126.27 63.5779 126.235 63.9206L126.232 63.9237ZM124.2 61.0125C123.926 60.5661 123.555 60.2297 123.085 59.9971C122.616 59.7644 122.096 59.6513 121.526 59.6513C120.707 59.6513 120.008 59.9122 119.432 60.4341C118.855 60.956 118.525 61.679 118.443 62.6065H124.613C124.613 61.9903 124.477 61.459 124.203 61.0125H124.2Z" fill="white"/>
<path d="M134.361 66.4859C134.837 66.1527 135.164 65.678 135.34 65.0618H137.089C136.849 65.9861 136.383 66.7437 135.69 67.3316C134.994 67.9195 134.125 68.2528 133.079 68.3377V69.2274C133.781 69.2148 134.339 69.3626 134.755 69.6738C135.17 69.9819 135.378 70.422 135.378 70.9911C135.378 71.5601 135.177 71.994 134.774 72.3272C134.37 72.6604 133.848 72.8239 133.205 72.8239H131.155V71.7739H132.884C133.277 71.7739 133.564 71.7142 133.75 71.5947C133.933 71.4752 134.027 71.274 134.027 70.9911C134.027 70.7081 133.936 70.5226 133.75 70.4032C133.564 70.2837 133.277 70.224 132.884 70.224H131.992V68.3188C131.173 68.2371 130.446 67.9793 129.816 67.5454C129.186 67.1116 128.695 66.53 128.345 65.8006C127.995 65.0712 127.819 64.2381 127.819 63.3012C127.819 62.2921 128.021 61.4118 128.424 60.6573C128.827 59.9027 129.391 59.3211 130.109 58.903C130.827 58.488 131.652 58.2805 132.578 58.2805C133.778 58.2805 134.767 58.5729 135.545 59.1514C136.323 59.733 136.837 60.5409 137.089 61.5721H135.34C135.174 60.9779 134.849 60.5095 134.367 60.1668C133.885 59.8241 133.29 59.6512 132.575 59.6512C131.649 59.6512 130.899 59.9688 130.329 60.6038C129.759 61.2389 129.473 62.138 129.473 63.3012C129.473 64.4645 129.759 65.3825 130.329 66.0238C130.899 66.6651 131.649 66.9858 132.575 66.9858C133.287 66.9858 133.882 66.8192 134.358 66.4891L134.361 66.4859Z" fill="white"/>
<path d="M139.246 60.6573C139.649 59.9028 140.207 59.3212 140.912 58.9031C141.618 58.4881 142.405 58.2806 143.275 58.2806C144.144 58.2806 144.875 58.4661 145.504 58.8339C146.134 59.2017 146.604 59.6639 146.912 60.2203V58.4409H148.553V68.1931H146.912V66.3791C146.591 66.9482 146.112 67.4197 145.476 67.7939C144.84 68.168 144.1 68.3535 143.256 68.3535C142.411 68.3535 141.602 68.1397 140.903 67.7121C140.2 67.2846 139.649 66.6872 139.246 65.9138C138.843 65.1436 138.641 64.2665 138.641 63.2793C138.641 62.2921 138.843 61.4087 139.246 60.6542V60.6573ZM146.468 61.3773C146.172 60.8334 145.769 60.4121 145.265 60.1229C144.761 59.8336 144.204 59.6859 143.599 59.6859C142.994 59.6859 142.44 59.8274 141.942 60.1134C141.445 60.3995 141.045 60.8145 140.748 61.3584C140.452 61.9054 140.301 62.5436 140.301 63.2793C140.301 64.015 140.449 64.6752 140.748 65.2285C141.045 65.7818 141.445 66.1999 141.942 66.4923C142.443 66.7847 142.994 66.9293 143.599 66.9293C144.204 66.9293 144.761 66.7847 145.265 66.4923C145.769 66.2031 146.172 65.7818 146.468 65.2285C146.764 64.6783 146.912 64.0338 146.912 63.2982C146.912 62.5625 146.764 61.9212 146.468 61.3773ZM141.895 56.0044C142.21 55.6838 142.604 55.5234 143.079 55.5234C143.306 55.5234 143.498 55.5612 143.659 55.6398C143.819 55.7184 144.012 55.8252 144.238 55.9699C144.405 56.0893 144.553 56.1805 144.682 56.2465C144.812 56.3125 144.956 56.344 145.111 56.344C145.312 56.344 145.486 56.278 145.627 56.1491C145.769 56.0202 145.86 55.8284 145.895 55.58H146.821C146.749 56.1742 146.553 56.6301 146.232 56.9507C145.911 57.2714 145.514 57.4317 145.038 57.4317C144.812 57.4317 144.613 57.394 144.44 57.3154C144.267 57.24 144.075 57.1237 143.86 56.9696C143.671 56.8501 143.517 56.7621 143.407 56.7024C143.293 56.6426 143.161 56.6144 143.007 56.6144C142.805 56.6144 142.635 56.6804 142.5 56.8093C142.364 56.9413 142.276 57.1362 142.241 57.3972H141.297C141.378 56.7936 141.58 56.3283 141.895 56.0076V56.0044Z" fill="white"/>
<path d="M153.073 67.7309C152.33 67.3159 151.747 66.7249 151.325 65.961C150.903 65.197 150.692 64.3104 150.692 63.3013C150.692 62.2921 150.909 61.4244 151.344 60.6573C151.779 59.8933 152.368 59.3054 153.117 58.8967C153.867 58.488 154.705 58.2837 155.631 58.2837C156.557 58.2837 157.394 58.488 158.144 58.8967C158.894 59.3054 159.483 59.8902 159.917 60.651C160.352 61.4118 160.569 62.2952 160.569 63.3013C160.569 64.3073 160.346 65.197 159.901 65.961C159.454 66.7249 158.853 67.3159 158.09 67.7309C157.328 68.1459 156.487 68.3534 155.558 68.3534C154.629 68.3534 153.813 68.1459 153.07 67.7309H153.073ZM157.199 66.5206C157.709 66.247 158.122 65.8383 158.437 65.2913C158.752 64.7443 158.909 64.0809 158.909 63.2981C158.909 62.5153 158.755 61.852 158.446 61.3049C158.138 60.761 157.735 60.3523 157.234 60.0851C156.733 59.8179 156.194 59.6858 155.612 59.6858C155.029 59.6858 154.475 59.8179 153.98 60.0851C153.486 60.3523 153.092 60.7579 152.796 61.3049C152.5 61.852 152.349 62.5153 152.349 63.2981C152.349 64.0809 152.493 64.7632 152.786 65.3102C153.076 65.8572 153.467 66.2628 153.955 66.53C154.443 66.7972 154.979 66.9293 155.558 66.9293C156.138 66.9293 156.686 66.7941 157.199 66.5206Z" fill="white"/>
<path d="M176.33 63.9237H168.522C168.582 64.8858 168.913 65.634 169.511 66.1747C170.11 66.7155 170.84 66.9858 171.694 66.9858C172.396 66.9858 172.979 66.8224 173.451 66.4954C173.921 66.1684 174.251 65.7346 174.44 65.1876H176.188C175.927 66.1244 175.404 66.8884 174.62 67.4731C173.836 68.061 172.859 68.3534 171.697 68.3534C170.771 68.3534 169.939 68.1459 169.209 67.7309C168.478 67.3159 167.905 66.7249 167.489 65.961C167.073 65.197 166.865 64.3104 166.865 63.3013C166.865 62.2921 167.067 61.4087 167.47 60.651C167.873 59.8933 168.443 59.3086 169.174 58.8967C169.905 58.488 170.746 58.2837 171.697 58.2837C172.648 58.2837 173.445 58.4849 174.157 58.8873C174.869 59.2897 175.42 59.8462 175.807 60.5504C176.195 61.2578 176.387 62.0532 176.387 62.9429C176.387 63.251 176.368 63.5779 176.333 63.9206L176.33 63.9237ZM174.299 61.0125C174.025 60.5661 173.653 60.2297 173.184 59.9971C172.714 59.7644 172.195 59.6513 171.624 59.6513C170.806 59.6513 170.106 59.9122 169.53 60.4341C168.954 60.956 168.623 61.679 168.541 62.6065H174.711C174.711 61.9903 174.576 61.459 174.302 61.0125H174.299Z" fill="white"/>
<path d="M192.305 58.7364C192.9 59.0508 193.37 59.5224 193.713 60.1512C194.056 60.7799 194.23 61.5439 194.23 62.4462V68.1931H192.626V62.6757C192.626 61.7042 192.387 60.9591 191.905 60.4435C191.423 59.928 190.774 59.6702 189.952 59.6702C189.13 59.6702 188.437 59.9405 187.937 60.4813C187.436 61.022 187.187 61.8017 187.187 62.8203V68.1931H185.584V62.6757C185.584 61.7042 185.344 60.9591 184.862 60.4435C184.381 59.928 183.732 59.6702 182.91 59.6702C182.088 59.6702 181.395 59.9405 180.894 60.4813C180.393 61.022 180.144 61.8017 180.144 62.8203V68.1931H178.522V58.4409H180.144V59.8462C180.466 59.3369 180.897 58.9439 181.436 58.6704C181.977 58.3969 182.573 58.2617 183.228 58.2617C184.047 58.2617 184.771 58.4472 185.404 58.8119C186.034 59.1797 186.503 59.7205 186.812 60.431C187.086 59.7425 187.537 59.208 188.166 58.8308C188.796 58.4503 189.499 58.2617 190.27 58.2617C191.042 58.2617 191.71 58.4189 192.302 58.7333L192.305 58.7364Z" fill="white"/>
<path d="M204.705 58.8433C205.342 58.4692 206.082 58.2837 206.926 58.2837C207.77 58.2837 208.579 58.4912 209.288 58.9062C209.997 59.3212 210.551 59.9059 210.954 60.6604C211.357 61.415 211.559 62.2889 211.559 63.2855C211.559 64.2821 211.357 65.1498 210.954 65.9201C210.551 66.6903 209.994 67.2908 209.288 67.7184C208.579 68.1459 207.792 68.3597 206.926 68.3597C206.06 68.3597 205.36 68.1742 204.724 67.8001C204.088 67.426 203.603 66.9607 203.272 66.4042V72.8271H201.65V58.4472H203.272V60.2455C203.593 59.689 204.072 59.2237 204.708 58.8496L204.705 58.8433ZM209.455 61.3615C209.159 60.8145 208.756 60.3995 208.252 60.1166C207.748 59.8305 207.19 59.689 206.586 59.689C205.981 59.689 205.442 59.8336 204.935 60.126C204.431 60.4184 204.025 60.8365 203.723 61.3898C203.42 61.9431 203.269 62.5782 203.269 63.3044C203.269 64.0306 203.42 64.6846 203.723 65.2347C204.025 65.788 204.431 66.2062 204.935 66.4986C205.439 66.7909 205.99 66.9355 206.586 66.9355C207.181 66.9355 207.748 66.7909 208.252 66.4986C208.756 66.2093 209.159 65.788 209.455 65.2347C209.751 64.6846 209.902 64.0338 209.902 63.2855C209.902 62.5373 209.754 61.9085 209.455 61.3647V61.3615Z" fill="white"/>
<path d="M216.542 58.727C217.071 58.4189 217.716 58.2649 218.476 58.2649V59.9374H218.047C216.23 59.9374 215.32 60.9214 215.32 62.8926V68.1963H213.698V58.4441H215.32V60.0286C215.606 59.4721 216.013 59.0383 216.542 58.7302V58.727Z" fill="white"/>
<path d="M220.403 56.5389C220.189 56.3251 220.082 56.0642 220.082 55.7561C220.082 55.448 220.189 55.187 220.403 54.9733C220.617 54.7595 220.879 54.6526 221.187 54.6526C221.496 54.6526 221.739 54.7595 221.946 54.9733C222.154 55.187 222.258 55.448 222.258 55.7561C222.258 56.0642 222.154 56.3251 221.946 56.5389C221.739 56.7527 221.487 56.8596 221.187 56.8596C220.888 56.8596 220.617 56.7527 220.403 56.5389ZM221.972 58.4409V68.1931H220.35V58.4409H221.972Z" fill="white"/>
<path d="M238.517 58.7364C239.112 59.0508 239.581 59.5224 239.925 60.1512C240.268 60.7799 240.441 61.5439 240.441 62.4462V68.1931H238.838V62.6757C238.838 61.7042 238.599 60.9591 238.117 60.4435C237.635 59.928 236.986 59.6702 236.164 59.6702C235.342 59.6702 234.649 59.9405 234.148 60.4813C233.647 61.022 233.399 61.8017 233.399 62.8203V68.1931H231.795V62.6757C231.795 61.7042 231.556 60.9591 231.074 60.4435C230.592 59.928 229.943 59.6702 229.121 59.6702C228.299 59.6702 227.606 59.9405 227.106 60.4813C226.605 61.022 226.356 61.8017 226.356 62.8203V68.1931H224.734V58.4409H226.356V59.8462C226.677 59.3369 227.109 58.9439 227.647 58.6704C228.189 58.3969 228.784 58.2617 229.439 58.2617C230.258 58.2617 230.983 58.4472 231.616 58.8119C232.246 59.1797 232.715 59.7205 233.024 60.431C233.298 59.7425 233.748 59.208 234.378 58.8308C235.008 58.4503 235.71 58.2617 236.482 58.2617C237.254 58.2617 237.921 58.4189 238.514 58.7333L238.517 58.7364Z" fill="white"/>
<path d="M251.959 63.9237H244.151C244.211 64.8858 244.542 65.634 245.14 66.1747C245.739 66.7155 246.47 66.9858 247.323 66.9858C248.026 66.9858 248.608 66.8224 249.081 66.4954C249.55 66.1684 249.881 65.7346 250.07 65.1876H251.818C251.556 66.1244 251.033 66.8884 250.249 67.4731C249.465 68.061 248.489 68.3534 247.326 68.3534C246.4 68.3534 245.569 68.1459 244.838 67.7309C244.107 67.3159 243.534 66.7249 243.118 65.961C242.703 65.197 242.495 64.3104 242.495 63.3013C242.495 62.2921 242.696 61.4087 243.099 60.651C243.503 59.8933 244.073 59.3086 244.803 58.8967C245.534 58.488 246.375 58.2837 247.326 58.2837C248.278 58.2837 249.074 58.4849 249.786 58.8873C250.498 59.2897 251.049 59.8462 251.437 60.5504C251.824 61.2578 252.016 62.0532 252.016 62.9429C252.016 63.251 251.997 63.5779 251.963 63.9206L251.959 63.9237ZM249.925 61.0125C249.651 60.5661 249.279 60.2297 248.81 59.9971C248.341 59.7644 247.821 59.6513 247.251 59.6513C246.432 59.6513 245.733 59.9122 245.156 60.4341C244.58 60.956 244.249 61.679 244.167 62.6065H250.337C250.337 61.9903 250.202 61.459 249.928 61.0125H249.925Z" fill="white"/>
<path d="M254.205 56.5389C253.991 56.3251 253.884 56.0642 253.884 55.7561C253.884 55.448 253.991 55.187 254.205 54.9733C254.419 54.7595 254.681 54.6526 254.989 54.6526C255.298 54.6526 255.541 54.7595 255.748 54.9733C255.956 55.187 256.06 55.448 256.06 55.7561C256.06 56.0642 255.956 56.3251 255.748 56.5389C255.541 56.7527 255.289 56.8596 254.989 56.8596C254.69 56.8596 254.419 56.7527 254.205 56.5389ZM255.774 58.4409V68.1931H254.152V58.4409H255.774Z" fill="white"/>
<path d="M261.38 58.727C261.909 58.4189 262.555 58.2649 263.314 58.2649V59.9374H262.886C261.068 59.9374 260.158 60.9214 260.158 62.8926V68.1963H258.536V58.4441H260.158V60.0286C260.445 59.4721 260.851 59.0383 261.38 58.7302V58.727Z" fill="white"/>
<path d="M266.961 67.7309C266.218 67.3159 265.635 66.7249 265.213 65.961C264.791 65.197 264.58 64.3104 264.58 63.3013C264.58 62.2921 264.798 61.4244 265.232 60.6573C265.667 59.8933 266.256 59.3054 267.005 58.8967C267.755 58.488 268.593 58.2837 269.519 58.2837C270.445 58.2837 271.283 58.488 272.032 58.8967C272.782 59.3054 273.371 59.8902 273.806 60.651C274.24 61.4118 274.458 62.2952 274.458 63.3013C274.458 64.3073 274.234 65.197 273.79 65.961C273.346 66.7249 272.741 67.3159 271.982 67.7309C271.22 68.1459 270.379 68.3534 269.45 68.3534C268.52 68.3534 267.705 68.1459 266.961 67.7309ZM271.087 66.5206C271.598 66.247 272.01 65.8383 272.325 65.2913C272.64 64.7443 272.798 64.0809 272.798 63.2981C272.798 62.5153 272.643 61.852 272.335 61.3049C272.026 60.761 271.623 60.3523 271.122 60.0851C270.624 59.8179 270.083 59.6858 269.5 59.6858C268.917 59.6858 268.363 59.8179 267.868 60.0851C267.374 60.3523 266.98 60.7579 266.684 61.3049C266.388 61.852 266.237 62.5153 266.237 63.2981C266.237 64.0809 266.382 64.7632 266.675 65.3102C266.964 65.8572 267.355 66.2628 267.843 66.53C268.331 66.7972 268.864 66.9293 269.446 66.9293C270.029 66.9293 270.574 66.7941 271.087 66.5206Z" fill="white"/>
<path d="M282.98 55.0234V68.193H281.358V55.0234H282.98Z" fill="white"/>
<path d="M294.407 58.4409V68.1931H292.785V66.7532C292.477 67.25 292.045 67.6398 291.494 67.9196C290.943 68.1994 290.332 68.3377 289.667 68.3377C288.905 68.3377 288.225 68.1805 287.617 67.8662C287.012 67.5518 286.533 67.0802 286.181 66.4514C285.831 65.8227 285.655 65.0587 285.655 64.1564V58.4441H287.258V63.9426C287.258 64.9047 287.5 65.6435 287.988 66.159C288.477 66.6746 289.141 66.9324 289.985 66.9324C290.829 66.9324 291.535 66.6652 292.036 66.1308C292.537 65.5963 292.785 64.8198 292.785 63.798V58.4409H294.407Z" fill="white"/>
<path d="M303.403 58.8338C304.039 59.2017 304.511 59.6638 304.82 60.2203V58.4409H306.461V68.4068C306.461 69.2965 306.272 70.0888 305.891 70.7836C305.51 71.4784 304.968 72.0191 304.259 72.4121C303.551 72.8051 302.729 73 301.79 73C300.505 73 299.437 72.6982 298.581 72.0914C297.724 71.4878 297.22 70.661 297.066 69.6172H298.669C298.848 70.2114 299.217 70.6893 299.774 71.0508C300.332 71.4123 301.006 71.5947 301.79 71.5947C302.681 71.5947 303.409 71.3149 303.973 70.7584C304.537 70.202 304.82 69.4191 304.82 68.41V66.3633C304.499 66.9324 304.023 67.4071 303.393 67.7875C302.763 68.1679 302.026 68.3565 301.182 68.3565C300.338 68.3565 299.525 68.1427 298.82 67.7152C298.111 67.2876 297.557 66.6903 297.154 65.9169C296.751 65.1467 296.549 64.2695 296.549 63.2824C296.549 62.2952 296.751 61.4118 297.154 60.6573C297.557 59.9027 298.114 59.3211 298.82 58.903C299.529 58.488 300.316 58.2805 301.182 58.2805C302.048 58.2805 302.766 58.466 303.403 58.8338ZM304.373 61.3772C304.077 60.8333 303.674 60.412 303.17 60.1228C302.666 59.8336 302.108 59.6858 301.503 59.6858C300.899 59.6858 300.344 59.8273 299.847 60.1134C299.349 60.3995 298.949 60.8145 298.653 61.3583C298.357 61.9054 298.206 62.5436 298.206 63.2792C298.206 64.0149 298.354 64.6751 298.653 65.2284C298.949 65.7817 299.349 66.1999 299.847 66.4922C300.348 66.7846 300.899 66.9292 301.503 66.9292C302.108 66.9292 302.666 66.7846 303.17 66.4922C303.674 66.203 304.077 65.7817 304.373 65.2284C304.669 64.6782 304.82 64.0337 304.82 63.2981C304.82 62.5624 304.672 61.9211 304.373 61.3772Z" fill="white"/>
<path d="M309.204 60.6573C309.608 59.9027 310.165 59.3211 310.871 58.903C311.579 58.488 312.367 58.2805 313.233 58.2805C314.099 58.2805 314.83 58.466 315.463 58.8338C316.093 59.2017 316.562 59.6638 316.871 60.2203V58.4409H318.512V68.193H316.871V66.3791C316.549 66.9481 316.071 67.4197 315.434 67.7938C314.798 68.1679 314.058 68.3534 313.214 68.3534C312.37 68.3534 311.56 68.1396 310.861 67.712C310.159 67.2845 309.608 66.6872 309.204 65.9138C308.801 65.1435 308.6 64.2664 308.6 63.2792C308.6 62.2921 308.801 61.4086 309.204 60.6541V60.6573ZM316.427 61.3772C316.13 60.8333 315.727 60.412 315.223 60.1228C314.719 59.8336 314.162 59.6858 313.557 59.6858C312.952 59.6858 312.398 59.8273 311.9 60.1134C311.403 60.3995 311.003 60.8145 310.707 61.3583C310.411 61.9054 310.259 62.5436 310.259 63.2792C310.259 64.0149 310.408 64.6751 310.707 65.2284C311.003 65.7817 311.403 66.1999 311.9 66.4922C312.401 66.7846 312.952 66.9292 313.557 66.9292C314.162 66.9292 314.719 66.7846 315.223 66.4922C315.727 66.203 316.13 65.7817 316.427 65.2284C316.723 64.6782 316.874 64.0337 316.874 63.2981C316.874 62.5624 316.726 61.9211 316.427 61.3772Z" fill="white"/>
<path d="M324.102 58.727C324.631 58.4189 325.277 58.2649 326.036 58.2649V59.9374H325.608C323.79 59.9374 322.88 60.9214 322.88 62.8926V68.1963H321.258V58.4441H322.88V60.0286C323.167 59.4721 323.573 59.0383 324.102 58.7302V58.727Z" fill="white"/>
</g>
<defs>
<clipPath id="clip0_217_122">
<rect width="329" height="73" fill="white"/>
</clipPath>
</defs>
</svg>
