<svg width="112" height="112" viewBox="0 0 112 112" fill="none" xmlns="http://www.w3.org/2000/svg">
<circle cx="56" cy="56" r="55" stroke="white" stroke-width="2"/>
<g clip-path="url(#clip0_2242_27)">
<path d="M31 50.2778C31.3528 45.028 33.9745 40.5827 39.1586 38.8499C45.1167 36.8575 51.645 38.3593 55.4012 43.4703L55.5988 43.5307C59.7762 37.6469 68.1416 36.2658 74.1453 40.3744C78.3364 43.2424 80.7512 48.4892 79.7901 53.5276C78.2269 61.7254 66.9433 71.4854 60.4727 76.4439C58.8531 77.6846 57.1925 78.9012 55.4726 80.0016C53.5337 78.7126 51.6237 77.3782 49.7715 75.9699C43.1641 70.942 31.6828 60.9707 31 52.2718V50.2763V50.2778Z" fill="white"/>
</g>
<defs>
<clipPath id="clip0_2242_27">
<rect width="49" height="42" fill="white" transform="translate(31 38)"/>
</clipPath>
</defs>
</svg>
