<svg width="82" height="89" viewBox="0 0 82 89" fill="none" xmlns="http://www.w3.org/2000/svg">
<g clip-path="url(#clip0_253_65)">
<path d="M43.07 -3.25544e-06L47.4582 0.917809C50.5747 1.82635 53.4407 3.43948 55.9376 5.48833C58.8894 3.48583 63.027 4.21823 64.6723 7.45838C66.8954 6.88823 69.3853 8.15601 70.3414 10.2165C70.5572 10.6823 70.8148 11.971 70.9564 12.1239C71.214 12.3997 72.7339 12.9259 73.3512 13.4682C75.2216 15.1068 75.6741 17.8394 74.7714 20.1061C74.5301 20.7134 73.4116 22.0599 73.386 22.1828C73.335 22.4354 73.6691 23.14 73.6947 23.5549C73.8153 25.5365 73.3698 27.189 72.0494 28.6886C71.7941 28.9806 71.214 29.1521 71.1095 29.4998C70.9958 29.8845 71.3091 30.9368 71.2116 31.6784C71.0654 32.7909 70.1349 35.4795 69.5501 36.4506C68.4014 38.3581 66.176 39.5192 63.9459 39.459C63.9668 40.5089 64.1989 42.0687 62.774 42.2055C62.2821 42.2518 61.3353 41.7674 61.3353 41.2853V28.684H57.3323C57.2139 31.1361 55.1161 33.9915 52.8559 34.9024C48.7856 36.5456 44.5969 34.024 43.4204 29.9772C43.0143 28.5843 43.3995 27.2516 41.6823 26.8483C40.9072 26.6652 39.5218 26.8646 39.0461 27.5413C38.8488 27.8218 38.4938 30.2577 38.0993 31.1152C34.8783 38.124 25.4127 35.9407 24.6144 28.684H20.6114V42.1545C20.6114 42.5717 21.0964 44.303 21.2589 44.8106C22.751 49.4808 27.0232 52.6143 31.8361 53.1937C31.5228 51.3558 34.0801 50.4125 34.5001 52.2713C34.818 53.6804 34.0336 54.5264 35.2287 55.8892C37.4751 58.4549 43.7615 58.4294 46.2817 56.3134C48.0755 54.8068 47.0637 54.0003 47.4536 52.269C47.8689 50.4217 50.5237 51.3465 50.0294 53.1891C53.1599 52.8507 56.3414 51.3349 58.3765 48.9245C58.8987 48.3057 60.2098 45.9045 60.5463 45.7029C62.3958 44.5904 63.1732 47.17 61.8852 48.4401L61.9363 48.6719C64.2731 50.4264 69.3923 52.0534 70.8148 54.589C71.1026 55.1035 71.1652 55.7409 71.511 56.1534C71.9426 56.668 73.5415 57.551 74.2214 58.1397C83.5525 66.1706 82.0464 77.233 81.6844 88.3696L81.0068 88.9977H80.1366L79.278 87.8574C79.0482 83.2915 79.5472 78.4915 79.2757 73.9534C78.9322 68.2101 76.0733 62.6824 71.4391 59.2731C71.0747 67.8115 68.8702 75.7427 64.9136 83.266C64.1873 84.6473 63.02 86.9326 62.1127 88.1169C61.8411 88.4716 61.4907 88.7033 61.1682 88.9977H60.298C59.7851 88.5689 59.3512 88.059 59.5879 87.3475C64.9716 78.8623 68.5221 69.3574 68.8354 59.1943C68.905 56.8858 69.1835 55.9472 67.139 54.6145C65.0319 53.2401 62.4793 52.1832 60.356 50.781L56.4667 53.8334C56.5108 59.9568 56.1975 66.1636 54.8191 72.1387C54.5893 73.133 53.8978 76.1251 53.4174 76.8228C52.7932 77.7313 51.4101 77.7081 51.1108 76.7069C50.8462 75.8215 51.9532 72.9151 52.2084 71.791C53.4639 66.2702 53.8792 60.5918 53.8584 54.9274L49.8646 55.8915C48.5396 58.7006 45.4045 60.2419 42.3715 60.316L42.3784 87.0068C42.2972 87.8365 42.2021 88.5063 41.5013 89H40.457C39.7562 88.5063 39.661 87.8365 39.5798 87.0068L39.5868 60.316C36.5375 60.2303 33.4257 58.7284 32.0936 55.8915L28.0999 54.9274C28.093 60.9905 28.506 67.1765 30.0631 73.0426C31.3743 77.9839 33.6461 82.5915 35.6836 87.2501C35.9597 88.0636 35.491 88.562 34.8876 88.9954H34.0174C33.7227 88.7497 33.4953 88.5921 33.2841 88.2491C32.277 86.6035 31.0471 83.3981 30.2789 81.5161C26.6264 72.5327 25.1806 63.5724 25.4916 53.8311C24.0203 53.0199 22.8763 51.7822 21.6023 50.7787L13.8191 55.3538C12.856 56.3342 13.0811 58.0609 13.1229 59.3681C13.4501 69.464 17.0284 78.918 22.3704 87.3475C22.6071 88.059 22.1732 88.5689 21.6603 88.9977H20.7901C19.3212 87.6117 18.1887 85.4261 17.2187 83.6136C13.1507 76.0139 10.8951 67.9343 10.5192 59.2731C9.47495 60.0889 8.44229 60.9696 7.55815 61.9616C7.06619 62.5132 5.75274 64.5482 5.29791 64.7429C4.4741 65.0928 3.44376 64.6015 3.38807 63.6929C3.31613 62.5225 6.77148 58.9741 7.73452 58.1397C8.38892 57.5742 10.0481 56.6193 10.4473 56.1558C10.7884 55.7571 10.858 55.0989 11.1434 54.5913C12.617 51.963 17.7594 50.5052 20.0823 48.5653C18.5763 45.7353 17.8105 42.6852 18.0077 39.4567C16.3183 39.4937 14.4549 38.6918 13.3039 37.4634C11.7909 35.8503 10.5633 31.8685 11.0205 29.669C8.96674 28.0906 8.10117 26.1692 8.26129 23.5549C8.28681 23.14 8.61866 22.4354 8.56992 22.1828C8.54672 22.0599 7.4282 20.7157 7.18454 20.1061C6.28183 17.8394 6.73667 15.1068 8.60473 13.4682C9.22201 12.9259 10.742 12.3997 10.9996 12.1239C11.1411 11.971 11.3987 10.6823 11.6145 10.2165C12.5706 8.15601 15.0606 6.88823 17.2837 7.45838C18.929 4.21359 23.0759 3.48583 26.0184 5.48833C27.2181 4.7258 30.1699 1.79854 31.5762 2.867C33.8967 4.6331 28.0558 6.40151 27.775 7.59513C28.8657 10.4992 28.1487 13.3338 25.7028 15.2273C26.8816 18.9983 24.7188 23.5966 20.6207 24.1667L20.6137 26.0719H24.6167C25.2456 20.3796 31.8036 17.0166 36.3589 21.2093C37.4426 22.206 37.9276 23.4274 38.6446 24.6581C40.2296 23.9813 41.7148 23.979 43.3067 24.6581C43.5991 24.5909 43.9216 23.4228 44.1421 23.0635C48.0569 16.6481 56.3924 19.1095 57.3346 26.0719H61.3376L61.3306 24.1667C57.2302 23.5966 55.0697 18.9959 56.2486 15.2273C54.478 13.7996 53.4267 11.8389 53.6982 9.48869C53.7586 8.96953 54.2088 8.05635 54.1925 7.72492C54.1716 7.2776 52.9881 6.50117 52.5867 6.21609C48.8946 3.60403 44.0191 2.3432 39.4963 2.6051C38.2873 2.67463 35.3889 3.75005 35.2821 1.7939C35.1939 0.190049 37.6955 0.20859 38.7839 0.155283L39.06 -0.00463867H43.063L43.07 -3.25544e-06ZM18.0077 26.0742C18.1562 25.1147 17.7478 23.2953 18.1354 22.4655C18.5229 21.6358 19.6669 21.8374 20.3167 21.6891C22.5491 21.1769 23.6699 18.8291 23.3242 16.6805C23.1524 15.6121 22.1407 14.4857 23.1385 13.5563C23.4379 13.2781 23.9298 13.1924 24.2617 12.9398C27.5314 10.4575 24.6492 5.85221 21.1428 7.21734C19.3305 7.92192 19.5648 9.72742 18.5716 10.2188C17.6968 10.6522 17.0865 9.87575 16.1861 9.90125C14.9608 9.93833 13.6775 11.2061 13.6543 12.4275C13.6497 12.7126 13.84 12.9954 13.826 13.2897C13.7518 14.7754 12.0021 14.4625 10.9926 14.984C9.14775 15.9366 8.78806 18.5532 10.1781 20.0783C10.5494 20.4862 11.4683 20.8547 11.5728 21.4782C11.7027 22.2523 10.9671 23.0195 10.8743 23.9025C10.735 25.2422 11.2641 26.649 12.4963 27.2702C13.0927 26.9781 14.3319 26.0765 14.9631 26.0765H18.0077V26.0742ZM63.9552 26.0742H67.1762C67.8097 26.0742 69.4596 27.2609 69.6151 27.2493C70.7336 26.3917 71.2395 25.3163 71.0933 23.9002C71.0005 23.0172 70.2649 22.25 70.3948 21.4759C70.4992 20.8501 71.4159 20.4839 71.7895 20.076C73.1795 18.5509 72.8175 15.9342 70.9749 14.9817C69.9655 14.4602 68.2158 14.7754 68.1415 13.2874C68.1276 12.9931 68.3179 12.7103 68.3132 12.4252C68.29 11.2038 67.0068 9.93601 65.7815 9.89893C64.8811 9.87112 64.2708 10.6475 63.3959 10.2165C62.405 9.7251 62.6371 7.91961 60.8247 7.21502C57.3183 5.85221 54.4339 10.4552 57.7059 12.9374C58.0377 13.1901 58.5297 13.2735 58.829 13.554C59.8269 14.4834 58.8128 15.6098 58.6434 16.6782C58.2999 18.8267 59.4208 21.1746 61.6509 21.6868C62.3006 21.8351 63.44 21.6242 63.8322 22.4632C64.1501 23.1446 63.8299 25.9421 63.9598 26.0719L63.9552 26.0742ZM34.6532 31.5741C39.6889 26.795 32.5717 17.8139 28.1324 23.9303C24.5982 28.7975 30.2557 35.7483 34.6532 31.5741ZM47.3074 31.5741C51.7072 35.7483 57.3624 28.7975 53.8282 23.9303C49.3889 17.8139 42.2717 26.795 47.3074 31.5741ZM18.0077 28.6816H15.3112C14.5477 28.6816 13.5801 29.9332 13.4942 30.7004C13.4176 31.3841 14.144 33.6925 14.4433 34.4156C15.0652 35.9175 16.3671 36.8469 18.0077 36.8516V28.6816ZM63.9552 36.8516C65.2246 36.9165 66.545 36.2327 67.2643 35.2014C67.7099 34.5593 68.7472 31.4304 68.6474 30.6957C68.5592 30.0375 67.4732 28.6816 66.8281 28.6816H63.9552V36.8516Z" fill="white"/>
<path d="M0.951488 89C0.505937 88.643 0.0743092 88.3394 0.0766298 87.6997C0.352779 82.5521 -0.366601 76.9827 0.2762 71.8999C0.389908 70.996 0.721751 68.676 1.3808 68.1383C2.24869 67.4291 3.51109 68.0433 3.53893 69.0909C3.55054 69.5312 3.16996 70.3586 3.08874 70.8871C2.94023 71.8559 2.73833 72.9939 2.68264 73.958C2.4297 78.2922 3.18621 83.5348 2.69424 87.7021C2.61302 88.3927 2.34152 88.6036 1.81939 89.0023H0.949168L0.951488 89Z" fill="white"/>
<path d="M47.9432 89H47.073C46.4023 88.5342 45.9684 87.9733 46.3211 87.1204L49.0107 81.1152C49.8136 80.0954 51.5679 80.7466 51.3916 82.0886C50.4123 83.952 49.7463 86.5015 48.6742 88.2537C48.4653 88.5967 48.2356 88.7566 47.9409 89H47.9432Z" fill="white"/>
<path d="M31.8036 16.465C31.2838 15.9389 31.3209 15.1138 31.8338 14.5923C32.3884 14.0291 34.9619 13.7023 35.8716 13.5841C39.7168 13.0811 45.4741 13.0487 49.1963 14.1311C51.2849 14.7383 50.5539 16.7895 49.2567 16.8382C48.528 16.866 46.827 16.3028 45.915 16.1915C43.2441 15.867 40.4408 15.7511 37.7629 15.9945C36.3078 16.1266 33.9107 16.8358 32.6785 16.808C32.4557 16.8034 31.9498 16.611 31.8059 16.465H31.8036Z" fill="white"/>
<path d="M39.552 8.7423C41.5199 8.66118 44.4786 8.70753 46.3861 9.11545C48.5025 9.56972 47.992 11.658 46.5973 11.7808C42.8217 11.1782 39.0113 11.2663 35.2334 11.753C34.1636 11.6232 33.7831 9.97068 34.6486 9.40516C35.3286 8.96016 38.5843 8.7817 39.5543 8.7423H39.552Z" fill="white"/>
<path d="M46.2028 37.5445C47.9455 37.8388 49.5676 38.5921 51.2802 38.993C52.473 39.2712 54.9467 39.0463 55.028 40.6154C55.0999 42.0061 51.3684 45.7005 50.1524 46.4445C49.4562 46.8709 48.0639 47.2232 47.6067 47.5523C47.2842 47.7841 46.6321 49.0125 46.2074 49.4575C43.1721 52.6351 38.5217 52.54 35.5908 49.2721C35.2334 48.8734 34.6509 47.7656 34.3562 47.55C33.8991 47.2209 32.5067 46.8686 31.8106 46.4421C30.4809 45.6286 28.4991 43.5543 27.6822 42.2216C25.6935 38.9722 28.4063 39.5191 30.6828 38.9907C32.4 38.5921 34.0174 37.8481 35.7602 37.5421C34.9317 36.2906 36.1013 34.9208 37.4983 35.5489C37.923 35.739 38.0831 36.4412 38.3708 36.7634C40.2203 38.8285 41.745 38.8285 43.5921 36.7634C43.8799 36.4435 44.04 35.7413 44.4647 35.5489C45.8617 34.9231 47.0312 36.2906 46.2028 37.5421V37.5445ZM51.4218 41.721C49.8229 41.5865 45.4045 39.4751 44.1073 39.8807C43.8265 39.9688 43.5643 40.2933 43.2441 40.4138C40.9884 41.2644 39.4824 40.8495 37.4194 39.7996L30.5389 41.7187C32.7457 44.5532 35.6859 46.1941 39.183 44.3516C39.7585 44.0479 40.4083 43.2947 41.0418 43.3318C41.6266 43.3642 42.7915 44.4814 43.5968 44.7525C46.9895 45.8928 49.3681 44.2705 51.4241 41.7187L51.4218 41.721ZM44.286 47.6311L40.9049 46.4074L37.851 47.7169C39.2759 49.374 41.5941 49.6475 43.4065 48.4006L44.286 47.6311Z" fill="white"/>
<path d="M50.1616 25.0637C52.1156 24.8992 51.8974 28.7327 51.1409 29.3561C50.2452 30.0955 49.1104 29.5555 48.9805 28.4244C48.8552 27.3351 48.7043 25.1866 50.1593 25.0637H50.1616Z" fill="white"/>
<path d="M31.5343 25.066C33.2794 24.8366 33.2214 27.8125 32.8965 28.8648C32.5136 30.0978 30.5133 29.9888 30.3555 28.2552C30.2534 27.1404 30.1025 25.2538 31.5343 25.066Z" fill="white"/>
</g>
<defs>
<clipPath id="clip0_253_65">
<rect width="82" height="89" fill="white"/>
</clipPath>
</defs>
</svg>
