<svg width="56" height="88" viewBox="0 0 56 88" fill="none" xmlns="http://www.w3.org/2000/svg">
<g clip-path="url(#clip0_253_45)">
<path d="M24.8825 63.6141C25.5781 70.9115 35.7733 79.2743 39.6878 85.5131C40.913 87.4672 39.0035 88.8403 37.5805 87.2972C33.8139 82.0596 29.0061 77.2008 25.3235 71.9517C19.7815 64.0504 23.0571 52.9781 22.1137 43.8506C20.9658 39.2536 14.9759 39.3707 13.9871 43.9953C14.3099 52.1308 12.7778 60.567 16.0421 68.2387C19.1381 75.5154 25.9577 80.1377 30.6473 86.2111C30.9428 87.7289 29.4675 88.528 28.3059 87.5383L18.3198 76.9643C17.7424 78.5395 17.406 80.1836 16.7308 81.7266C16.1534 83.0424 15.2328 84.5716 14.3849 85.7289C14.0962 86.1216 12.8755 87.7152 12.5664 87.8529C11.2843 88.4224 10.1409 87.2375 10.691 85.9585C11.0229 85.1893 12.6573 83.5429 13.2574 82.5234C14.8327 79.8437 15.6011 76.877 15.842 73.7817C13.3233 69.5498 11.5457 64.8081 11.2456 59.8231C11.0342 56.3397 10.7614 45.4695 11.5343 42.551C12.1936 40.0619 12.0822 39.4281 12.2686 36.9207C12.4891 33.9586 12.9119 31.0102 13.1165 28.0504C6.03321 32.1468 -2.21847 25.1618 0.545732 17.3317C1.72552 13.9907 4.71703 11.9126 8.13591 11.4786C8.82696 6.60608 11.457 2.21573 16.3126 0.707116C19.0677 -0.147074 25.7077 -0.0781878 28.7265 0.146841C34.9868 0.612972 39.6969 6.16521 39.3741 12.466C39.2286 15.3202 38.1124 17.311 39.6287 20.1354C40.3993 21.5728 41.8996 22.5211 40.9448 24.3856C40.3515 25.5429 38.9763 25.5636 38.7262 25.8483C38.6285 25.9608 38.3057 28.3145 38.1693 28.815C37.2327 32.2639 34.364 36.2708 30.4268 35.9723C29.6607 35.9149 28.881 35.5246 28.1241 35.5452C28.6514 36.1698 29.0424 36.9046 29.5698 37.5292C35.0891 44.0389 40.7312 43.6509 43.1817 53.745C43.2658 54.094 43.4022 55.4649 43.4976 55.5774C43.5545 55.644 44.6842 56.0022 45.0843 56.3007C46.6528 57.4672 47.3871 59.5521 47.1188 61.4649C55.4432 65.6577 58.4848 76.2318 53.7815 84.3765C53.0973 85.5613 50.931 89.0768 49.342 87.6486C48.0099 86.4522 49.6784 85.4212 50.2785 84.6267C55.4637 77.7358 53.7543 67.7726 45.8527 64.0527C43.3612 69.5039 35.1414 67.1388 35.7915 61.0378C36.012 58.9712 38.6103 55.7955 40.7357 55.4373C40.2538 52.5831 39.124 49.8874 37.2418 47.6899C36.5826 46.9184 34.6208 44.9276 33.6615 44.9184C32.5068 44.9092 31.3474 45.0607 30.0995 44.9138C28.3218 44.7048 26.5442 44.1859 24.8779 43.559V63.6233L24.8825 63.6141ZM18.7085 2.9574C14.7964 3.43272 11.8548 6.64282 11.1252 10.4522C10.1113 15.7335 11.989 19.8414 15.1032 23.8966L16.1398 23.1457C13.9325 18.8449 17.7697 13.7083 22.3297 16.4385C22.9571 15.5292 23.6982 14.675 24.2301 13.6991C25.1007 12.1078 25.4053 9.31102 27.3966 8.97577C28.8947 8.72319 29.9131 9.05384 31.477 8.27543C32.1681 7.93329 33.7888 6.46142 33.8957 5.70367C34.0389 4.66578 30.7087 3.31332 29.8653 3.12503C27.7353 2.64971 20.9817 2.67727 18.7085 2.95281V2.9574ZM38.1806 23.2284C37.9556 22.2226 37.1532 21.4878 36.7349 20.4706C35.1641 16.6497 37.2714 13.311 36.3962 9.61871C36.3212 9.30643 36.0552 8.45913 35.8802 8.24558C35.6278 7.94248 35.6506 8.1744 35.4824 8.36039C35.0141 8.87244 34.6345 9.43042 34.0753 9.8667C32.3817 11.1916 30.0972 11.7657 27.9763 11.7129C27.3625 13.8369 25.5394 17.6026 23.6822 18.8288C21.5159 20.2594 20.5452 17.7542 19.095 18.675C17.14 19.9172 18.638 22.6267 20.3839 23.3822C21.5204 23.8736 23.4095 23.5062 23.1731 25.3661C22.9003 27.5246 19.2177 26.016 18.147 25.2972L16.0421 26.528L14.9918 38.3834C19.3495 36.1468 21.9933 39.5269 25.6895 40.923C27.0534 41.4373 28.531 41.9149 29.9949 41.9976C28.4491 40.4155 27.0557 38.8495 25.8327 36.9896C25.5281 36.528 24.8348 34.9666 24.6233 34.7668C24.2801 34.4408 23.4504 34.5142 23.0026 34.3374C21.6114 33.7909 21.9478 31.621 23.5936 31.66C25.5963 31.706 28.5059 33.0355 30.6155 33.1962C33.1228 33.3891 34.9482 30.1905 35.5392 28.0504C36.0598 26.156 35.6097 23.559 38.1806 23.2261V23.2284ZM8.17455 14.2754C1.67778 14.939 0.718494 24.4201 6.98795 26.2387C8.75876 26.753 11.1911 26.551 12.4186 25.0699C10.4364 21.7129 8.17455 18.3535 8.17683 14.2754H8.17455ZM41.5472 58.0573C40.597 58.2111 39.3582 59.5498 38.8922 60.3696C37.2282 63.2904 41.0699 65.6853 43.0498 63.536C43.4408 63.1113 44.4546 61.2261 44.4796 60.6727C44.5501 59.086 43.0703 57.8116 41.5495 58.0573H41.5472Z" fill="white"/>
</g>
<defs>
<clipPath id="clip0_253_45">
<rect width="56" height="88" fill="white"/>
</clipPath>
</defs>
</svg>
