<svg width="112" height="112" viewBox="0 0 112 112" fill="none" xmlns="http://www.w3.org/2000/svg">
<circle cx="56" cy="56" r="55" stroke="white" stroke-width="2"/>
<g clip-path="url(#clip0_2242_28)">
<path d="M33.5405 38.3364C33.7142 37.2392 35.1159 36.0397 36.283 36.1346L36.2907 28.748C36.4491 27.7501 37.9469 27.7486 38.1053 28.748L38.1129 36.1346C39.0622 36.118 39.92 36.6237 40.4258 37.4063C40.5188 37.5493 40.8555 38.2386 40.8555 38.3364V41.5541C41.3141 41.4728 42.6839 41.5375 42.6839 42.1742V72.2564H44.7987C45.5956 72.2564 45.5956 74.0624 44.7987 74.0624H40.8555V82.1894H43.8845C44.4757 82.1894 45.076 83.866 43.5478 84.0015L30.6364 83.9894C29.4602 83.8073 29.8898 82.1894 30.516 82.1894H33.545V74.0624H29.5973C28.8004 74.0624 28.8004 72.2564 29.5973 72.2564H31.7121V42.1742C31.7121 41.536 33.0819 41.4728 33.5405 41.5541C33.6517 40.5683 33.3912 39.2815 33.5405 38.3364ZM39.0256 41.5541V38.5621C39.0256 37.7359 36.2389 37.8081 35.7818 38.067C35.669 38.1317 35.3689 38.4748 35.3689 38.5621V41.5541H39.0256ZM40.854 43.3601H33.5405V72.2564H40.854V68.0799C40.6666 68.0995 40.697 68.3373 40.5112 68.4743C40.3908 68.5646 40.2537 68.6142 40.1043 68.6368C39.3806 68.7482 36.9793 68.7331 36.2236 68.6458C35.0611 68.5119 35.0611 66.9677 36.2236 66.8353C36.9809 66.7495 39.3791 66.733 40.1043 66.8443C40.2537 66.8669 40.3908 66.9166 40.5112 67.0069C40.697 67.1453 40.6666 67.3816 40.854 67.4012V64.4664C40.6666 64.486 40.697 64.7238 40.5112 64.8607C40.3908 64.951 40.2537 65.0007 40.1043 65.0233C39.5284 65.1121 37.7366 65.1015 37.1378 65.0323C35.9753 64.8983 35.9753 63.3542 37.1378 63.2218C37.7381 63.1525 39.5269 63.142 40.1043 63.2308C40.2537 63.2534 40.3908 63.303 40.5112 63.3933C40.697 63.5318 40.6666 63.7681 40.854 63.7877V60.8529C40.6666 60.8724 40.697 61.1102 40.5112 61.2472C40.3908 61.3375 40.2537 61.3872 40.1043 61.4097C39.3806 61.5211 36.9793 61.5061 36.2236 61.4188C35.0611 61.2848 35.0611 59.7407 36.2236 59.6082C36.9809 59.5224 39.3791 59.5059 40.1043 59.6173C40.2537 59.6398 40.3908 59.6895 40.5112 59.7798C40.697 59.9183 40.6666 60.1546 40.854 60.1741V43.3556V43.3601ZM39.0256 74.0624H35.3689V82.1894H39.0256V74.0624Z" fill="white"/>
<path d="M56.7135 32.5573C71.7793 31.6257 83.9319 44.6546 81.744 59.4263C79.4814 74.7007 62.927 83.8 48.5468 77.4684C47.7758 77.1298 45.5665 76.308 46.5142 75.1958C47.2014 74.3892 48.6824 75.5676 49.461 75.8882C66.023 82.7209 83.423 68.7303 79.6505 51.373C76.1598 35.3145 56.3067 28.8926 43.7961 39.6625C42.9779 40.0147 42.2298 39.3404 42.504 38.5006C42.6122 38.171 44.0886 37.104 44.4741 36.8346C48.0196 34.3528 52.3574 32.8267 56.7135 32.5573Z" fill="white"/>
<path d="M66.6462 45.7532C66.9754 45.6539 67.306 45.7292 67.5894 45.9053C67.9078 46.1024 69.9084 48.092 70.1674 48.4382C70.4416 48.8024 70.5696 49.0974 70.3914 49.5669L53.6435 66.095C53.2915 66.3192 52.9304 66.2635 52.6196 65.9957L46.0572 59.4985C45.8988 59.0892 45.9871 58.7686 46.2264 58.4285C46.4656 58.0883 48.4509 56.1258 48.7983 55.888C49.1457 55.6502 49.5403 55.5373 49.9471 55.7691L53.0218 58.8288L53.3098 58.8845L66.6478 45.7502L66.6462 45.7532ZM66.9647 47.8768L53.6496 61.0216L52.6744 60.9734L49.4809 57.8084L48.169 59.1042L53.0203 63.9082L53.3083 63.9639L68.2765 49.1711L66.9647 47.8753V47.8768Z" fill="white"/>
</g>
<defs>
<clipPath id="clip0_2242_28">
<rect width="53" height="56" fill="white" transform="translate(29 28)"/>
</clipPath>
</defs>
</svg>
